<?xml version="1.0" encoding="utf-8" standalone="no"?>
<!DOCTYPE svg PUBLIC "-//W3C//DTD SVG 1.1//EN"
  "http://www.w3.org/Graphics/SVG/1.1/DTD/svg11.dtd">
<svg xmlns:xlink="http://www.w3.org/1999/xlink" width="971.159609pt" height="122.76pt" viewBox="0 0 971.159609 122.76" xmlns="http://www.w3.org/2000/svg" version="1.1">
 <metadata>
  <rdf:RDF xmlns:dc="http://purl.org/dc/elements/1.1/" xmlns:cc="http://creativecommons.org/ns#" xmlns:rdf="http://www.w3.org/1999/02/22-rdf-syntax-ns#">
   <cc:Work>
    <dc:type rdf:resource="http://purl.org/dc/dcmitype/StillImage"/>
    <dc:date>2026-06-28T18:33:48.727427</dc:date>
    <dc:format>image/svg+xml</dc:format>
    <dc:creator>
     <cc:Agent>
      <dc:title>Matplotlib v3.11.0, https://matplotlib.org/</dc:title>
     </cc:Agent>
    </dc:creator>
   </cc:Work>
  </rdf:RDF>
 </metadata>
 <defs>
  <style type="text/css">*{stroke-linejoin: round; stroke-linecap: butt}</style>
 </defs>
 <g id="figure_1">
  <g id="patch_1">
   <path d="M 0 122.76 
L 971.159609 122.76 
L 971.159609 0 
L 0 0 
z
" style="fill: #ffffff"/>
  </g>
  <g id="axes_1">
   <g id="line2d_1">
    <path d="M 66.479609 22.68 
L 66.479609 4.68 
L 145.679609 4.68 
L 145.679609 40.68 
L 66.479609 40.68 
L 66.479609 22.68 
" clip-path="url(#pacfd096c0f)" style="fill: none; stroke: #000000; stroke-width: 2; stroke-linecap: round"/>
   </g>
   <g id="line2d_2">
    <path d="M 145.679609 22.68 
L 172.679609 22.68 
L 190.679609 22.68 
" clip-path="url(#pacfd096c0f)" style="fill: none; stroke: #000000; stroke-width: 2; stroke-linecap: round"/>
   </g>
   <g id="patch_2">
    <path d="M 190.679609 19.98 
L 199.679609 22.68 
L 190.679609 25.38 
z
" clip-path="url(#pacfd096c0f)"/>
   </g>
   <g id="line2d_3">
    <path d="M 199.679609 22.68 
L 199.679609 4.68 
L 286.079609 4.68 
L 286.079609 40.68 
L 199.679609 40.68 
L 199.679609 22.68 
" clip-path="url(#pacfd096c0f)" style="fill: none; stroke: #000000; stroke-width: 2; stroke-linecap: round"/>
   </g>
   <g id="line2d_4">
    <path d="M 286.079609 22.68 
L 313.079609 22.68 
L 331.079609 22.68 
" clip-path="url(#pacfd096c0f)" style="fill: none; stroke: #000000; stroke-width: 2; stroke-linecap: round"/>
   </g>
   <g id="patch_3">
    <path d="M 331.079609 19.98 
L 340.079609 22.68 
L 331.079609 25.38 
z
" clip-path="url(#pacfd096c0f)"/>
   </g>
   <g id="line2d_5">
    <path d="M 340.079609 22.68 
L 340.079609 4.68 
L 426.479609 4.68 
L 426.479609 40.68 
L 340.079609 40.68 
L 340.079609 22.68 
" clip-path="url(#pacfd096c0f)" style="fill: none; stroke: #000000; stroke-width: 2; stroke-linecap: round"/>
   </g>
   <g id="line2d_6">
    <path d="M 426.479609 22.68 
L 453.479609 22.68 
L 471.479609 22.68 
" clip-path="url(#pacfd096c0f)" style="fill: none; stroke: #000000; stroke-width: 2; stroke-linecap: round"/>
   </g>
   <g id="patch_4">
    <path d="M 471.479609 19.98 
L 480.479609 22.68 
L 471.479609 25.38 
z
" clip-path="url(#pacfd096c0f)"/>
   </g>
   <g id="line2d_7">
    <path d="M 480.479609 22.68 
L 480.479609 4.68 
L 566.879609 4.68 
L 566.879609 40.68 
L 480.479609 40.68 
L 480.479609 22.68 
" clip-path="url(#pacfd096c0f)" style="fill: none; stroke: #000000; stroke-width: 2; stroke-linecap: round"/>
   </g>
   <g id="line2d_8">
    <path d="M 566.879609 22.68 
L 593.879609 22.68 
L 611.879609 22.68 
" clip-path="url(#pacfd096c0f)" style="fill: none; stroke: #000000; stroke-width: 2; stroke-linecap: round"/>
   </g>
   <g id="patch_5">
    <path d="M 611.879609 19.98 
L 620.879609 22.68 
L 611.879609 25.38 
z
" clip-path="url(#pacfd096c0f)"/>
   </g>
   <g id="line2d_9">
    <path d="M 620.879609 22.68 
L 620.879609 4.68 
L 714.479609 4.68 
L 714.479609 40.68 
L 620.879609 40.68 
L 620.879609 22.68 
" clip-path="url(#pacfd096c0f)" style="fill: none; stroke: #000000; stroke-width: 2; stroke-linecap: round"/>
   </g>
   <g id="line2d_10">
    <path d="M 714.479609 22.68 
L 741.479609 22.68 
L 759.479609 22.68 
" clip-path="url(#pacfd096c0f)" style="fill: none; stroke: #000000; stroke-width: 2; stroke-linecap: round"/>
   </g>
   <g id="patch_6">
    <path d="M 759.479609 19.98 
L 768.479609 22.68 
L 759.479609 25.38 
z
" clip-path="url(#pacfd096c0f)"/>
   </g>
   <g id="line2d_11">
    <path d="M 768.479609 22.68 
L 768.479609 4.68 
L 847.679609 4.68 
L 847.679609 40.68 
L 768.479609 40.68 
L 768.479609 22.68 
" clip-path="url(#pacfd096c0f)" style="fill: none; stroke: #000000; stroke-width: 2; stroke-linecap: round"/>
   </g>
   <g id="line2d_12">
    <path d="M 847.679609 22.68 
L 874.679609 22.68 
L 892.679609 22.68 
" clip-path="url(#pacfd096c0f)" style="fill: none; stroke: #000000; stroke-width: 2; stroke-linecap: round"/>
   </g>
   <g id="patch_7">
    <path d="M 892.679609 19.98 
L 901.679609 22.68 
L 892.679609 25.38 
z
" clip-path="url(#pacfd096c0f)"/>
   </g>
   <g id="line2d_13">
    <path d="M 901.679609 22.68 
L 901.679609 4.68 
L 966.479609 4.68 
L 966.479609 40.68 
L 901.679609 40.68 
L 901.679609 22.68 
" clip-path="url(#pacfd096c0f)" style="fill: none; stroke: #000000; stroke-width: 2; stroke-linecap: round"/>
   </g>
   <g id="line2d_14">
    <path d="M 66.479609 101.88 
L 66.479609 85.68 
L 534.479609 85.68 
L 534.479609 118.08 
L 66.479609 118.08 
L 66.479609 101.88 
" clip-path="url(#pacfd096c0f)" style="fill: none; stroke: #000000; stroke-width: 2; stroke-linecap: round"/>
   </g>
   <g id="text_1">
    <!-- INPUT -->
    <g transform="translate(89.641484 21.111641) scale(0.11 -0.11)">
     <defs>
      <path id="DejaVuSans-2c" d="M 628 4666 
L 1259 4666 
L 1259 0 
L 628 0 
L 628 4666 
z
" transform="scale(0.015625)"/>
      <path id="DejaVuSans-31" d="M 628 4666 
L 1478 4666 
L 3547 763 
L 3547 4666 
L 4159 4666 
L 4159 0 
L 3309 0 
L 1241 3903 
L 1241 0 
L 628 0 
L 628 4666 
z
" transform="scale(0.015625)"/>
      <path id="DejaVuSans-33" d="M 1259 4147 
L 1259 2394 
L 2053 2394 
Q 2494 2394 2734 2622 
Q 2975 2850 2975 3272 
Q 2975 3691 2734 3919 
Q 2494 4147 2053 4147 
L 1259 4147 
z
M 628 4666 
L 2053 4666 
Q 2838 4666 3239 4311 
Q 3641 3956 3641 3272 
Q 3641 2581 3239 2228 
Q 2838 1875 2053 1875 
L 1259 1875 
L 1259 0 
L 628 0 
L 628 4666 
z
" transform="scale(0.015625)"/>
      <path id="DejaVuSans-38" d="M 556 4666 
L 1191 4666 
L 1191 1831 
Q 1191 1081 1462 751 
Q 1734 422 2344 422 
Q 2950 422 3222 751 
Q 3494 1081 3494 1831 
L 3494 4666 
L 4128 4666 
L 4128 1753 
Q 4128 841 3676 375 
Q 3225 -91 2344 -91 
Q 1459 -91 1007 375 
Q 556 841 556 1753 
L 556 4666 
z
" transform="scale(0.015625)"/>
      <path id="DejaVuSans-37" d="M -19 4666 
L 3928 4666 
L 3928 4134 
L 2272 4134 
L 2272 0 
L 1638 0 
L 1638 4134 
L -19 4134 
L -19 4666 
z
" transform="scale(0.015625)"/>
     </defs>
     <use xlink:href="#DejaVuSans-2c"/>
     <use xlink:href="#DejaVuSans-31" transform="translate(29.5 0)"/>
     <use xlink:href="#DejaVuSans-33" transform="translate(104.3125 0)"/>
     <use xlink:href="#DejaVuSans-38" transform="translate(164.609375 0)"/>
     <use xlink:href="#DejaVuSans-37" transform="translate(237.796875 0)"/>
    </g>
    <!-- jack -->
    <g transform="translate(94.972187 31.215313) scale(0.11 -0.11)">
     <defs>
      <path id="DejaVuSans-4d" d="M 603 3500 
L 1178 3500 
L 1178 -63 
Q 1178 -731 923 -1031 
Q 669 -1331 103 -1331 
L -116 -1331 
L -116 -844 
L 38 -844 
Q 366 -844 484 -692 
Q 603 -541 603 -63 
L 603 3500 
z
M 603 4863 
L 1178 4863 
L 1178 4134 
L 603 4134 
L 603 4863 
z
" transform="scale(0.015625)"/>
      <path id="DejaVuSans-44" d="M 2194 1759 
Q 1497 1759 1228 1600 
Q 959 1441 959 1056 
Q 959 750 1161 570 
Q 1363 391 1709 391 
Q 2188 391 2477 730 
Q 2766 1069 2766 1631 
L 2766 1759 
L 2194 1759 
z
M 3341 1997 
L 3341 0 
L 2766 0 
L 2766 531 
Q 2569 213 2275 61 
Q 1981 -91 1556 -91 
Q 1019 -91 701 211 
Q 384 513 384 1019 
Q 384 1609 779 1909 
Q 1175 2209 1959 2209 
L 2766 2209 
L 2766 2266 
Q 2766 2663 2505 2880 
Q 2244 3097 1772 3097 
Q 1472 3097 1187 3025 
Q 903 2953 641 2809 
L 641 3341 
Q 956 3463 1253 3523 
Q 1550 3584 1831 3584 
Q 2591 3584 2966 3190 
Q 3341 2797 3341 1997 
z
" transform="scale(0.015625)"/>
      <path id="DejaVuSans-46" d="M 3122 3366 
L 3122 2828 
Q 2878 2963 2633 3030 
Q 2388 3097 2138 3097 
Q 1578 3097 1268 2742 
Q 959 2388 959 1747 
Q 959 1106 1268 751 
Q 1578 397 2138 397 
Q 2388 397 2633 464 
Q 2878 531 3122 666 
L 3122 134 
Q 2881 22 2623 -34 
Q 2366 -91 2075 -91 
Q 1284 -91 818 406 
Q 353 903 353 1747 
Q 353 2603 823 3093 
Q 1294 3584 2113 3584 
Q 2378 3584 2631 3529 
Q 2884 3475 3122 3366 
z
" transform="scale(0.015625)"/>
      <path id="DejaVuSans-4e" d="M 581 4863 
L 1159 4863 
L 1159 1991 
L 2875 3500 
L 3609 3500 
L 1753 1863 
L 3688 0 
L 2938 0 
L 1159 1709 
L 1159 0 
L 581 0 
L 581 4863 
z
" transform="scale(0.015625)"/>
     </defs>
     <use xlink:href="#DejaVuSans-4d"/>
     <use xlink:href="#DejaVuSans-44" transform="translate(27.78125 0)"/>
     <use xlink:href="#DejaVuSans-46" transform="translate(89.0625 0)"/>
     <use xlink:href="#DejaVuSans-4e" transform="translate(144.046875 0)"/>
    </g>
   </g>
   <g id="text_2">
    <!-- Preamp -->
    <g transform="translate(221.916016 20.046016) scale(0.11 -0.11)">
     <defs>
      <path id="DejaVuSans-55" d="M 2631 2963 
Q 2534 3019 2420 3045 
Q 2306 3072 2169 3072 
Q 1681 3072 1420 2755 
Q 1159 2438 1159 1844 
L 1159 0 
L 581 0 
L 581 3500 
L 1159 3500 
L 1159 2956 
Q 1341 3275 1631 3429 
Q 1922 3584 2338 3584 
Q 2397 3584 2469 3576 
Q 2541 3569 2628 3553 
L 2631 2963 
z
" transform="scale(0.015625)"/>
      <path id="DejaVuSans-48" d="M 3597 1894 
L 3597 1613 
L 953 1613 
Q 991 1019 1311 708 
Q 1631 397 2203 397 
Q 2534 397 2845 478 
Q 3156 559 3463 722 
L 3463 178 
Q 3153 47 2828 -22 
Q 2503 -91 2169 -91 
Q 1331 -91 842 396 
Q 353 884 353 1716 
Q 353 2575 817 3079 
Q 1281 3584 2069 3584 
Q 2775 3584 3186 3129 
Q 3597 2675 3597 1894 
z
M 3022 2063 
Q 3016 2534 2758 2815 
Q 2500 3097 2075 3097 
Q 1594 3097 1305 2825 
Q 1016 2553 972 2059 
L 3022 2063 
z
" transform="scale(0.015625)"/>
      <path id="DejaVuSans-50" d="M 3328 2828 
Q 3544 3216 3844 3400 
Q 4144 3584 4550 3584 
Q 5097 3584 5394 3201 
Q 5691 2819 5691 2113 
L 5691 0 
L 5113 0 
L 5113 2094 
Q 5113 2597 4934 2840 
Q 4756 3084 4391 3084 
Q 3944 3084 3684 2787 
Q 3425 2491 3425 1978 
L 3425 0 
L 2847 0 
L 2847 2094 
Q 2847 2600 2669 2842 
Q 2491 3084 2119 3084 
Q 1678 3084 1418 2786 
Q 1159 2488 1159 1978 
L 1159 0 
L 581 0 
L 581 3500 
L 1159 3500 
L 1159 2956 
Q 1356 3278 1631 3431 
Q 1906 3584 2284 3584 
Q 2666 3584 2933 3390 
Q 3200 3197 3328 2828 
z
" transform="scale(0.015625)"/>
      <path id="DejaVuSans-53" d="M 1159 525 
L 1159 -1331 
L 581 -1331 
L 581 3500 
L 1159 3500 
L 1159 2969 
Q 1341 3281 1617 3432 
Q 1894 3584 2278 3584 
Q 2916 3584 3314 3078 
Q 3713 2572 3713 1747 
Q 3713 922 3314 415 
Q 2916 -91 2278 -91 
Q 1894 -91 1617 61 
Q 1341 213 1159 525 
z
M 3116 1747 
Q 3116 2381 2855 2742 
Q 2594 3103 2138 3103 
Q 1681 3103 1420 2742 
Q 1159 2381 1159 1747 
Q 1159 1113 1420 752 
Q 1681 391 2138 391 
Q 2594 391 2855 752 
Q 3116 1113 3116 1747 
z
" transform="scale(0.015625)"/>
     </defs>
     <use xlink:href="#DejaVuSans-33"/>
     <use xlink:href="#DejaVuSans-55" transform="translate(58.546875 0)"/>
     <use xlink:href="#DejaVuSans-48" transform="translate(97.453125 0)"/>
     <use xlink:href="#DejaVuSans-44" transform="translate(158.984375 0)"/>
     <use xlink:href="#DejaVuSans-50" transform="translate(220.265625 0)"/>
     <use xlink:href="#DejaVuSans-53" transform="translate(317.671875 0)"/>
    </g>
    <!-- 12AX7/7025 -->
    <g transform="translate(209.001328 31.751563) scale(0.11 -0.11)">
     <defs>
      <path id="DejaVuSans-14" d="M 794 531 
L 1825 531 
L 1825 4091 
L 703 3866 
L 703 4441 
L 1819 4666 
L 2450 4666 
L 2450 531 
L 3481 531 
L 3481 0 
L 794 0 
L 794 531 
z
" transform="scale(0.015625)"/>
      <path id="DejaVuSans-15" d="M 1228 531 
L 3431 531 
L 3431 0 
L 469 0 
L 469 531 
Q 828 903 1448 1529 
Q 2069 2156 2228 2338 
Q 2531 2678 2651 2914 
Q 2772 3150 2772 3378 
Q 2772 3750 2511 3984 
Q 2250 4219 1831 4219 
Q 1534 4219 1204 4116 
Q 875 4013 500 3803 
L 500 4441 
Q 881 4594 1212 4672 
Q 1544 4750 1819 4750 
Q 2544 4750 2975 4387 
Q 3406 4025 3406 3419 
Q 3406 3131 3298 2873 
Q 3191 2616 2906 2266 
Q 2828 2175 2409 1742 
Q 1991 1309 1228 531 
z
" transform="scale(0.015625)"/>
      <path id="DejaVuSans-24" d="M 2188 4044 
L 1331 1722 
L 3047 1722 
L 2188 4044 
z
M 1831 4666 
L 2547 4666 
L 4325 0 
L 3669 0 
L 3244 1197 
L 1141 1197 
L 716 0 
L 50 0 
L 1831 4666 
z
" transform="scale(0.015625)"/>
      <path id="DejaVuSans-3b" d="M 403 4666 
L 1081 4666 
L 2241 2931 
L 3406 4666 
L 4084 4666 
L 2584 2425 
L 4184 0 
L 3506 0 
L 2194 1984 
L 872 0 
L 191 0 
L 1856 2491 
L 403 4666 
z
" transform="scale(0.015625)"/>
      <path id="DejaVuSans-1a" d="M 525 4666 
L 3525 4666 
L 3525 4397 
L 1831 0 
L 1172 0 
L 2766 4134 
L 525 4134 
L 525 4666 
z
" transform="scale(0.015625)"/>
      <path id="DejaVuSans-12" d="M 1625 4666 
L 2156 4666 
L 531 -594 
L 0 -594 
L 1625 4666 
z
" transform="scale(0.015625)"/>
      <path id="DejaVuSans-13" d="M 2034 4250 
Q 1547 4250 1301 3770 
Q 1056 3291 1056 2328 
Q 1056 1369 1301 889 
Q 1547 409 2034 409 
Q 2525 409 2770 889 
Q 3016 1369 3016 2328 
Q 3016 3291 2770 3770 
Q 2525 4250 2034 4250 
z
M 2034 4750 
Q 2819 4750 3233 4129 
Q 3647 3509 3647 2328 
Q 3647 1150 3233 529 
Q 2819 -91 2034 -91 
Q 1250 -91 836 529 
Q 422 1150 422 2328 
Q 422 3509 836 4129 
Q 1250 4750 2034 4750 
z
" transform="scale(0.015625)"/>
      <path id="DejaVuSans-18" d="M 691 4666 
L 3169 4666 
L 3169 4134 
L 1269 4134 
L 1269 2991 
Q 1406 3038 1543 3061 
Q 1681 3084 1819 3084 
Q 2600 3084 3056 2656 
Q 3513 2228 3513 1497 
Q 3513 744 3044 326 
Q 2575 -91 1722 -91 
Q 1428 -91 1123 -41 
Q 819 9 494 109 
L 494 744 
Q 775 591 1075 516 
Q 1375 441 1709 441 
Q 2250 441 2565 725 
Q 2881 1009 2881 1497 
Q 2881 1984 2565 2268 
Q 2250 2553 1709 2553 
Q 1456 2553 1204 2497 
Q 953 2441 691 2322 
L 691 4666 
z
" transform="scale(0.015625)"/>
     </defs>
     <use xlink:href="#DejaVuSans-14"/>
     <use xlink:href="#DejaVuSans-15" transform="translate(63.625 0)"/>
     <use xlink:href="#DejaVuSans-24" transform="translate(127.25 0)"/>
     <use xlink:href="#DejaVuSans-3b" transform="translate(195.65625 0)"/>
     <use xlink:href="#DejaVuSans-1a" transform="translate(264.15625 0)"/>
     <use xlink:href="#DejaVuSans-12" transform="translate(327.78125 0)"/>
     <use xlink:href="#DejaVuSans-1a" transform="translate(361.46875 0)"/>
     <use xlink:href="#DejaVuSans-13" transform="translate(425.09375 0)"/>
     <use xlink:href="#DejaVuSans-15" transform="translate(488.71875 0)"/>
     <use xlink:href="#DejaVuSans-18" transform="translate(552.34375 0)"/>
    </g>
   </g>
   <g id="text_3">
    <!-- Tone stack -->
    <g transform="translate(354.270547 21.280938) scale(0.11 -0.11)">
     <defs>
      <path id="DejaVuSans-52" d="M 1959 3097 
Q 1497 3097 1228 2736 
Q 959 2375 959 1747 
Q 959 1119 1226 758 
Q 1494 397 1959 397 
Q 2419 397 2687 759 
Q 2956 1122 2956 1747 
Q 2956 2369 2687 2733 
Q 2419 3097 1959 3097 
z
M 1959 3584 
Q 2709 3584 3137 3096 
Q 3566 2609 3566 1747 
Q 3566 888 3137 398 
Q 2709 -91 1959 -91 
Q 1206 -91 779 398 
Q 353 888 353 1747 
Q 353 2609 779 3096 
Q 1206 3584 1959 3584 
z
" transform="scale(0.015625)"/>
      <path id="DejaVuSans-51" d="M 3513 2113 
L 3513 0 
L 2938 0 
L 2938 2094 
Q 2938 2591 2744 2837 
Q 2550 3084 2163 3084 
Q 1697 3084 1428 2787 
Q 1159 2491 1159 1978 
L 1159 0 
L 581 0 
L 581 3500 
L 1159 3500 
L 1159 2956 
Q 1366 3272 1645 3428 
Q 1925 3584 2291 3584 
Q 2894 3584 3203 3211 
Q 3513 2838 3513 2113 
z
" transform="scale(0.015625)"/>
      <path id="DejaVuSans-3" transform="scale(0.015625)"/>
      <path id="DejaVuSans-56" d="M 2834 3397 
L 2834 2853 
Q 2591 2978 2328 3040 
Q 2066 3103 1784 3103 
Q 1356 3103 1142 2972 
Q 928 2841 928 2578 
Q 928 2378 1081 2264 
Q 1234 2150 1697 2047 
L 1894 2003 
Q 2506 1872 2764 1633 
Q 3022 1394 3022 966 
Q 3022 478 2636 193 
Q 2250 -91 1575 -91 
Q 1294 -91 989 -36 
Q 684 19 347 128 
L 347 722 
Q 666 556 975 473 
Q 1284 391 1588 391 
Q 1994 391 2212 530 
Q 2431 669 2431 922 
Q 2431 1156 2273 1281 
Q 2116 1406 1581 1522 
L 1381 1569 
Q 847 1681 609 1914 
Q 372 2147 372 2553 
Q 372 3047 722 3315 
Q 1072 3584 1716 3584 
Q 2034 3584 2315 3537 
Q 2597 3491 2834 3397 
z
" transform="scale(0.015625)"/>
      <path id="DejaVuSans-57" d="M 1172 4494 
L 1172 3500 
L 2356 3500 
L 2356 3053 
L 1172 3053 
L 1172 1153 
Q 1172 725 1289 603 
Q 1406 481 1766 481 
L 2356 481 
L 2356 0 
L 1766 0 
Q 1100 0 847 248 
Q 594 497 594 1153 
L 594 3053 
L 172 3053 
L 172 3500 
L 594 3500 
L 594 4494 
L 1172 4494 
z
" transform="scale(0.015625)"/>
     </defs>
     <use xlink:href="#DejaVuSans-37"/>
     <use xlink:href="#DejaVuSans-52" transform="translate(44.09375 0)"/>
     <use xlink:href="#DejaVuSans-51" transform="translate(105.28125 0)"/>
     <use xlink:href="#DejaVuSans-48" transform="translate(168.65625 0)"/>
     <use xlink:href="#DejaVuSans-3" transform="translate(230.1875 0)"/>
     <use xlink:href="#DejaVuSans-56" transform="translate(261.96875 0)"/>
     <use xlink:href="#DejaVuSans-57" transform="translate(314.0625 0)"/>
     <use xlink:href="#DejaVuSans-44" transform="translate(353.265625 0)"/>
     <use xlink:href="#DejaVuSans-46" transform="translate(414.546875 0)"/>
     <use xlink:href="#DejaVuSans-4e" transform="translate(469.53125 0)"/>
    </g>
    <!-- B / T / Presence -->
    <g transform="translate(340.561797 31.679375) scale(0.11 -0.11)">
     <defs>
      <path id="DejaVuSans-25" d="M 1259 2228 
L 1259 519 
L 2272 519 
Q 2781 519 3026 730 
Q 3272 941 3272 1375 
Q 3272 1813 3026 2020 
Q 2781 2228 2272 2228 
L 1259 2228 
z
M 1259 4147 
L 1259 2741 
L 2194 2741 
Q 2656 2741 2882 2914 
Q 3109 3088 3109 3444 
Q 3109 3797 2882 3972 
Q 2656 4147 2194 4147 
L 1259 4147 
z
M 628 4666 
L 2241 4666 
Q 2963 4666 3353 4366 
Q 3744 4066 3744 3513 
Q 3744 3084 3544 2831 
Q 3344 2578 2956 2516 
Q 3422 2416 3680 2098 
Q 3938 1781 3938 1306 
Q 3938 681 3513 340 
Q 3088 0 2303 0 
L 628 0 
L 628 4666 
z
" transform="scale(0.015625)"/>
     </defs>
     <use xlink:href="#DejaVuSans-25"/>
     <use xlink:href="#DejaVuSans-3" transform="translate(68.609375 0)"/>
     <use xlink:href="#DejaVuSans-12" transform="translate(100.390625 0)"/>
     <use xlink:href="#DejaVuSans-3" transform="translate(134.078125 0)"/>
     <use xlink:href="#DejaVuSans-37" transform="translate(165.859375 0)"/>
     <use xlink:href="#DejaVuSans-3" transform="translate(226.9375 0)"/>
     <use xlink:href="#DejaVuSans-12" transform="translate(258.71875 0)"/>
     <use xlink:href="#DejaVuSans-3" transform="translate(292.40625 0)"/>
     <use xlink:href="#DejaVuSans-33" transform="translate(324.1875 0)"/>
     <use xlink:href="#DejaVuSans-55" transform="translate(382.734375 0)"/>
     <use xlink:href="#DejaVuSans-48" transform="translate(421.640625 0)"/>
     <use xlink:href="#DejaVuSans-56" transform="translate(483.171875 0)"/>
     <use xlink:href="#DejaVuSans-48" transform="translate(535.265625 0)"/>
     <use xlink:href="#DejaVuSans-51" transform="translate(596.796875 0)"/>
     <use xlink:href="#DejaVuSans-46" transform="translate(660.171875 0)"/>
     <use xlink:href="#DejaVuSans-48" transform="translate(715.15625 0)"/>
    </g>
   </g>
   <g id="text_4">
    <!-- Phase -->
    <g transform="translate(507.257812 21.280938) scale(0.11 -0.11)">
     <defs>
      <path id="DejaVuSans-4b" d="M 3513 2113 
L 3513 0 
L 2938 0 
L 2938 2094 
Q 2938 2591 2744 2837 
Q 2550 3084 2163 3084 
Q 1697 3084 1428 2787 
Q 1159 2491 1159 1978 
L 1159 0 
L 581 0 
L 581 4863 
L 1159 4863 
L 1159 2956 
Q 1366 3272 1645 3428 
Q 1925 3584 2291 3584 
Q 2894 3584 3203 3211 
Q 3513 2838 3513 2113 
z
" transform="scale(0.015625)"/>
     </defs>
     <use xlink:href="#DejaVuSans-33"/>
     <use xlink:href="#DejaVuSans-4b" transform="translate(60.296875 0)"/>
     <use xlink:href="#DejaVuSans-44" transform="translate(123.671875 0)"/>
     <use xlink:href="#DejaVuSans-56" transform="translate(184.953125 0)"/>
     <use xlink:href="#DejaVuSans-48" transform="translate(237.046875 0)"/>
    </g>
    <!-- inverter -->
    <g transform="translate(501.964062 32.280938) scale(0.11 -0.11)">
     <defs>
      <path id="DejaVuSans-4c" d="M 603 3500 
L 1178 3500 
L 1178 0 
L 603 0 
L 603 3500 
z
M 603 4863 
L 1178 4863 
L 1178 4134 
L 603 4134 
L 603 4863 
z
" transform="scale(0.015625)"/>
      <path id="DejaVuSans-59" d="M 191 3500 
L 800 3500 
L 1894 563 
L 2988 3500 
L 3597 3500 
L 2284 0 
L 1503 0 
L 191 3500 
z
" transform="scale(0.015625)"/>
     </defs>
     <use xlink:href="#DejaVuSans-4c"/>
     <use xlink:href="#DejaVuSans-51" transform="translate(27.78125 0)"/>
     <use xlink:href="#DejaVuSans-59" transform="translate(91.15625 0)"/>
     <use xlink:href="#DejaVuSans-48" transform="translate(150.34375 0)"/>
     <use xlink:href="#DejaVuSans-55" transform="translate(211.875 0)"/>
     <use xlink:href="#DejaVuSans-57" transform="translate(252.984375 0)"/>
     <use xlink:href="#DejaVuSans-48" transform="translate(292.1875 0)"/>
     <use xlink:href="#DejaVuSans-55" transform="translate(353.71875 0)"/>
    </g>
   </g>
   <g id="text_5">
    <!-- Power -->
    <g transform="translate(651.050703 21.111641) scale(0.11 -0.11)">
     <defs>
      <path id="DejaVuSans-5a" d="M 269 3500 
L 844 3500 
L 1563 769 
L 2278 3500 
L 2956 3500 
L 3675 769 
L 4391 3500 
L 4966 3500 
L 4050 0 
L 3372 0 
L 2619 2869 
L 1863 0 
L 1184 0 
L 269 3500 
z
" transform="scale(0.015625)"/>
     </defs>
     <use xlink:href="#DejaVuSans-33"/>
     <use xlink:href="#DejaVuSans-52" transform="translate(56.734375 0)"/>
     <use xlink:href="#DejaVuSans-5a" transform="translate(117.921875 0)"/>
     <use xlink:href="#DejaVuSans-48" transform="translate(199.703125 0)"/>
     <use xlink:href="#DejaVuSans-55" transform="translate(261.234375 0)"/>
    </g>
    <!-- 2× 5881 PP -->
    <g transform="translate(635.445312 32.183828) scale(0.11 -0.11)">
     <defs>
      <path id="DejaVuSans-99" d="M 4488 3438 
L 3059 2003 
L 4488 575 
L 4116 197 
L 2681 1631 
L 1247 197 
L 878 575 
L 2303 2003 
L 878 3438 
L 1247 3816 
L 2681 2381 
L 4116 3816 
L 4488 3438 
z
" transform="scale(0.015625)"/>
      <path id="DejaVuSans-1b" d="M 2034 2216 
Q 1584 2216 1326 1975 
Q 1069 1734 1069 1313 
Q 1069 891 1326 650 
Q 1584 409 2034 409 
Q 2484 409 2743 651 
Q 3003 894 3003 1313 
Q 3003 1734 2745 1975 
Q 2488 2216 2034 2216 
z
M 1403 2484 
Q 997 2584 770 2862 
Q 544 3141 544 3541 
Q 544 4100 942 4425 
Q 1341 4750 2034 4750 
Q 2731 4750 3128 4425 
Q 3525 4100 3525 3541 
Q 3525 3141 3298 2862 
Q 3072 2584 2669 2484 
Q 3125 2378 3379 2068 
Q 3634 1759 3634 1313 
Q 3634 634 3220 271 
Q 2806 -91 2034 -91 
Q 1263 -91 848 271 
Q 434 634 434 1313 
Q 434 1759 690 2068 
Q 947 2378 1403 2484 
z
M 1172 3481 
Q 1172 3119 1398 2916 
Q 1625 2713 2034 2713 
Q 2441 2713 2670 2916 
Q 2900 3119 2900 3481 
Q 2900 3844 2670 4047 
Q 2441 4250 2034 4250 
Q 1625 4250 1398 4047 
Q 1172 3844 1172 3481 
z
" transform="scale(0.015625)"/>
     </defs>
     <use xlink:href="#DejaVuSans-15"/>
     <use xlink:href="#DejaVuSans-99" transform="translate(63.625 0)"/>
     <use xlink:href="#DejaVuSans-3" transform="translate(147.421875 0)"/>
     <use xlink:href="#DejaVuSans-18" transform="translate(179.203125 0)"/>
     <use xlink:href="#DejaVuSans-1b" transform="translate(242.828125 0)"/>
     <use xlink:href="#DejaVuSans-1b" transform="translate(306.453125 0)"/>
     <use xlink:href="#DejaVuSans-14" transform="translate(370.078125 0)"/>
     <use xlink:href="#DejaVuSans-3" transform="translate(433.703125 0)"/>
     <use xlink:href="#DejaVuSans-33" transform="translate(465.484375 0)"/>
     <use xlink:href="#DejaVuSans-33" transform="translate(525.78125 0)"/>
    </g>
   </g>
   <g id="text_6">
    <!-- Output -->
    <g transform="translate(788.974844 20.118203) scale(0.11 -0.11)">
     <defs>
      <path id="DejaVuSans-32" d="M 2522 4238 
Q 1834 4238 1429 3725 
Q 1025 3213 1025 2328 
Q 1025 1447 1429 934 
Q 1834 422 2522 422 
Q 3209 422 3611 934 
Q 4013 1447 4013 2328 
Q 4013 3213 3611 3725 
Q 3209 4238 2522 4238 
z
M 2522 4750 
Q 3503 4750 4090 4092 
Q 4678 3434 4678 2328 
Q 4678 1225 4090 567 
Q 3503 -91 2522 -91 
Q 1538 -91 948 565 
Q 359 1222 359 2328 
Q 359 3434 948 4092 
Q 1538 4750 2522 4750 
z
" transform="scale(0.015625)"/>
      <path id="DejaVuSans-58" d="M 544 1381 
L 544 3500 
L 1119 3500 
L 1119 1403 
Q 1119 906 1312 657 
Q 1506 409 1894 409 
Q 2359 409 2629 706 
Q 2900 1003 2900 1516 
L 2900 3500 
L 3475 3500 
L 3475 0 
L 2900 0 
L 2900 538 
Q 2691 219 2414 64 
Q 2138 -91 1772 -91 
Q 1169 -91 856 284 
Q 544 659 544 1381 
z
M 1991 3584 
L 1991 3584 
z
" transform="scale(0.015625)"/>
     </defs>
     <use xlink:href="#DejaVuSans-32"/>
     <use xlink:href="#DejaVuSans-58" transform="translate(78.71875 0)"/>
     <use xlink:href="#DejaVuSans-57" transform="translate(142.09375 0)"/>
     <use xlink:href="#DejaVuSans-53" transform="translate(181.296875 0)"/>
     <use xlink:href="#DejaVuSans-58" transform="translate(244.78125 0)"/>
     <use xlink:href="#DejaVuSans-57" transform="translate(308.15625 0)"/>
    </g>
    <!-- transformer -->
    <g transform="translate(775.472344 32.280938) scale(0.11 -0.11)">
     <defs>
      <path id="DejaVuSans-49" d="M 2375 4863 
L 2375 4384 
L 1825 4384 
Q 1516 4384 1395 4259 
Q 1275 4134 1275 3809 
L 1275 3500 
L 2222 3500 
L 2222 3053 
L 1275 3053 
L 1275 0 
L 697 0 
L 697 3053 
L 147 3053 
L 147 3500 
L 697 3500 
L 697 3744 
Q 697 4328 969 4595 
Q 1241 4863 1831 4863 
L 2375 4863 
z
" transform="scale(0.015625)"/>
     </defs>
     <use xlink:href="#DejaVuSans-57"/>
     <use xlink:href="#DejaVuSans-55" transform="translate(39.203125 0)"/>
     <use xlink:href="#DejaVuSans-44" transform="translate(80.3125 0)"/>
     <use xlink:href="#DejaVuSans-51" transform="translate(141.59375 0)"/>
     <use xlink:href="#DejaVuSans-56" transform="translate(204.96875 0)"/>
     <use xlink:href="#DejaVuSans-49" transform="translate(257.0625 0)"/>
     <use xlink:href="#DejaVuSans-52" transform="translate(292.265625 0)"/>
     <use xlink:href="#DejaVuSans-55" transform="translate(353.453125 0)"/>
     <use xlink:href="#DejaVuSans-50" transform="translate(392.8125 0)"/>
     <use xlink:href="#DejaVuSans-48" transform="translate(490.21875 0)"/>
     <use xlink:href="#DejaVuSans-55" transform="translate(551.75 0)"/>
    </g>
   </g>
   <g id="text_7">
    <!-- SPKR -->
    <g transform="translate(919.843203 26.683828) scale(0.11 -0.11)">
     <defs>
      <path id="DejaVuSans-36" d="M 3425 4513 
L 3425 3897 
Q 3066 4069 2747 4153 
Q 2428 4238 2131 4238 
Q 1616 4238 1336 4038 
Q 1056 3838 1056 3469 
Q 1056 3159 1242 3001 
Q 1428 2844 1947 2747 
L 2328 2669 
Q 3034 2534 3370 2195 
Q 3706 1856 3706 1288 
Q 3706 609 3251 259 
Q 2797 -91 1919 -91 
Q 1588 -91 1214 -16 
Q 841 59 441 206 
L 441 856 
Q 825 641 1194 531 
Q 1563 422 1919 422 
Q 2459 422 2753 634 
Q 3047 847 3047 1241 
Q 3047 1584 2836 1778 
Q 2625 1972 2144 2069 
L 1759 2144 
Q 1053 2284 737 2584 
Q 422 2884 422 3419 
Q 422 4038 858 4394 
Q 1294 4750 2059 4750 
Q 2388 4750 2728 4690 
Q 3069 4631 3425 4513 
z
" transform="scale(0.015625)"/>
      <path id="DejaVuSans-2e" d="M 628 4666 
L 1259 4666 
L 1259 2694 
L 3353 4666 
L 4166 4666 
L 1850 2491 
L 4331 0 
L 3500 0 
L 1259 2247 
L 1259 0 
L 628 0 
L 628 4666 
z
" transform="scale(0.015625)"/>
      <path id="DejaVuSans-35" d="M 2841 2188 
Q 3044 2119 3236 1894 
Q 3428 1669 3622 1275 
L 4263 0 
L 3584 0 
L 2988 1197 
Q 2756 1666 2539 1819 
Q 2322 1972 1947 1972 
L 1259 1972 
L 1259 0 
L 628 0 
L 628 4666 
L 2053 4666 
Q 2853 4666 3247 4331 
Q 3641 3997 3641 3322 
Q 3641 2881 3436 2590 
Q 3231 2300 2841 2188 
z
M 1259 4147 
L 1259 2491 
L 2053 2491 
Q 2509 2491 2742 2702 
Q 2975 2913 2975 3322 
Q 2975 3731 2742 3939 
Q 2509 4147 2053 4147 
L 1259 4147 
z
" transform="scale(0.015625)"/>
     </defs>
     <use xlink:href="#DejaVuSans-36"/>
     <use xlink:href="#DejaVuSans-33" transform="translate(63.484375 0)"/>
     <use xlink:href="#DejaVuSans-2e" transform="translate(123.78125 0)"/>
     <use xlink:href="#DejaVuSans-35" transform="translate(189.359375 0)"/>
    </g>
   </g>
   <g id="text_8">
    <!-- Fender Bassman 6G6-C   |   tubes: 5881 + 7025   |   SS rectifier   |   transformers: 125P7A, 125C1A, 125A13A -->
    <g transform="translate(0 104.786406) scale(0.11 -0.11)">
     <defs>
      <path id="DejaVuSans-29" d="M 628 4666 
L 3309 4666 
L 3309 4134 
L 1259 4134 
L 1259 2759 
L 3109 2759 
L 3109 2228 
L 1259 2228 
L 1259 0 
L 628 0 
L 628 4666 
z
" transform="scale(0.015625)"/>
      <path id="DejaVuSans-47" d="M 2906 2969 
L 2906 4863 
L 3481 4863 
L 3481 0 
L 2906 0 
L 2906 525 
Q 2725 213 2448 61 
Q 2172 -91 1784 -91 
Q 1150 -91 751 415 
Q 353 922 353 1747 
Q 353 2572 751 3078 
Q 1150 3584 1784 3584 
Q 2172 3584 2448 3432 
Q 2725 3281 2906 2969 
z
M 947 1747 
Q 947 1113 1208 752 
Q 1469 391 1925 391 
Q 2381 391 2643 752 
Q 2906 1113 2906 1747 
Q 2906 2381 2643 2742 
Q 2381 3103 1925 3103 
Q 1469 3103 1208 2742 
Q 947 2381 947 1747 
z
" transform="scale(0.015625)"/>
      <path id="DejaVuSans-19" d="M 2113 2584 
Q 1688 2584 1439 2293 
Q 1191 2003 1191 1497 
Q 1191 994 1439 701 
Q 1688 409 2113 409 
Q 2538 409 2786 701 
Q 3034 994 3034 1497 
Q 3034 2003 2786 2293 
Q 2538 2584 2113 2584 
z
M 3366 4563 
L 3366 3988 
Q 3128 4100 2886 4159 
Q 2644 4219 2406 4219 
Q 1781 4219 1451 3797 
Q 1122 3375 1075 2522 
Q 1259 2794 1537 2939 
Q 1816 3084 2150 3084 
Q 2853 3084 3261 2657 
Q 3669 2231 3669 1497 
Q 3669 778 3244 343 
Q 2819 -91 2113 -91 
Q 1303 -91 875 529 
Q 447 1150 447 2328 
Q 447 3434 972 4092 
Q 1497 4750 2381 4750 
Q 2619 4750 2861 4703 
Q 3103 4656 3366 4563 
z
" transform="scale(0.015625)"/>
      <path id="DejaVuSans-2a" d="M 3809 666 
L 3809 1919 
L 2778 1919 
L 2778 2438 
L 4434 2438 
L 4434 434 
Q 4069 175 3628 42 
Q 3188 -91 2688 -91 
Q 1594 -91 976 548 
Q 359 1188 359 2328 
Q 359 3472 976 4111 
Q 1594 4750 2688 4750 
Q 3144 4750 3555 4637 
Q 3966 4525 4313 4306 
L 4313 3634 
Q 3963 3931 3569 4081 
Q 3175 4231 2741 4231 
Q 1884 4231 1454 3753 
Q 1025 3275 1025 2328 
Q 1025 1384 1454 906 
Q 1884 428 2741 428 
Q 3075 428 3337 486 
Q 3600 544 3809 666 
z
" transform="scale(0.015625)"/>
      <path id="DejaVuSans-10" d="M 313 2009 
L 1997 2009 
L 1997 1497 
L 313 1497 
L 313 2009 
z
" transform="scale(0.015625)"/>
      <path id="DejaVuSans-26" d="M 4122 4306 
L 4122 3641 
Q 3803 3938 3442 4084 
Q 3081 4231 2675 4231 
Q 1875 4231 1450 3742 
Q 1025 3253 1025 2328 
Q 1025 1406 1450 917 
Q 1875 428 2675 428 
Q 3081 428 3442 575 
Q 3803 722 4122 1019 
L 4122 359 
Q 3791 134 3420 21 
Q 3050 -91 2638 -91 
Q 1578 -91 968 557 
Q 359 1206 359 2328 
Q 359 3453 968 4101 
Q 1578 4750 2638 4750 
Q 3056 4750 3426 4639 
Q 3797 4528 4122 4306 
z
" transform="scale(0.015625)"/>
      <path id="DejaVuSans-5f" d="M 1344 4891 
L 1344 -1509 
L 813 -1509 
L 813 4891 
L 1344 4891 
z
" transform="scale(0.015625)"/>
      <path id="DejaVuSans-45" d="M 3116 1747 
Q 3116 2381 2855 2742 
Q 2594 3103 2138 3103 
Q 1681 3103 1420 2742 
Q 1159 2381 1159 1747 
Q 1159 1113 1420 752 
Q 1681 391 2138 391 
Q 2594 391 2855 752 
Q 3116 1113 3116 1747 
z
M 1159 2969 
Q 1341 3281 1617 3432 
Q 1894 3584 2278 3584 
Q 2916 3584 3314 3078 
Q 3713 2572 3713 1747 
Q 3713 922 3314 415 
Q 2916 -91 2278 -91 
Q 1894 -91 1617 61 
Q 1341 213 1159 525 
L 1159 0 
L 581 0 
L 581 4863 
L 1159 4863 
L 1159 2969 
z
" transform="scale(0.015625)"/>
      <path id="DejaVuSans-1d" d="M 750 794 
L 1409 794 
L 1409 0 
L 750 0 
L 750 794 
z
M 750 3309 
L 1409 3309 
L 1409 2516 
L 750 2516 
L 750 3309 
z
" transform="scale(0.015625)"/>
      <path id="DejaVuSans-e" d="M 2944 4013 
L 2944 2272 
L 4684 2272 
L 4684 1741 
L 2944 1741 
L 2944 0 
L 2419 0 
L 2419 1741 
L 678 1741 
L 678 2272 
L 2419 2272 
L 2419 4013 
L 2944 4013 
z
" transform="scale(0.015625)"/>
      <path id="DejaVuSans-13af" d="M 3431 3500 
L 3431 0 
L 2853 0 
L 2853 3053 
L 1275 3053 
L 1275 0 
L 697 0 
L 697 3053 
L 147 3053 
L 147 3500 
L 697 3500 
L 697 3744 
Q 697 4316 967 4589 
Q 1238 4863 1797 4863 
L 2375 4863 
L 2375 4384 
L 1825 4384 
Q 1516 4384 1395 4259 
Q 1275 4134 1275 3809 
L 1275 3500 
L 3431 3500 
z
M 2853 4856 
L 3431 4856 
L 3431 4128 
L 2853 4128 
L 2853 4856 
z
" transform="scale(0.015625)"/>
      <path id="DejaVuSans-f" d="M 750 794 
L 1409 794 
L 1409 256 
L 897 -744 
L 494 -744 
L 750 256 
L 750 794 
z
" transform="scale(0.015625)"/>
      <path id="DejaVuSans-16" d="M 2597 2516 
Q 3050 2419 3304 2112 
Q 3559 1806 3559 1356 
Q 3559 666 3084 287 
Q 2609 -91 1734 -91 
Q 1441 -91 1130 -33 
Q 819 25 488 141 
L 488 750 
Q 750 597 1062 519 
Q 1375 441 1716 441 
Q 2309 441 2620 675 
Q 2931 909 2931 1356 
Q 2931 1769 2642 2001 
Q 2353 2234 1838 2234 
L 1294 2234 
L 1294 2753 
L 1863 2753 
Q 2328 2753 2575 2939 
Q 2822 3125 2822 3475 
Q 2822 3834 2567 4026 
Q 2313 4219 1838 4219 
Q 1578 4219 1281 4162 
Q 984 4106 628 3988 
L 628 4550 
Q 988 4650 1302 4700 
Q 1616 4750 1894 4750 
Q 2613 4750 3031 4423 
Q 3450 4097 3450 3541 
Q 3450 3153 3228 2886 
Q 3006 2619 2597 2516 
z
" transform="scale(0.015625)"/>
     </defs>
     <use xlink:href="#DejaVuSans-29"/>
     <use xlink:href="#DejaVuSans-48" transform="translate(52.046875 0)"/>
     <use xlink:href="#DejaVuSans-51" transform="translate(113.578125 0)"/>
     <use xlink:href="#DejaVuSans-47" transform="translate(176.953125 0)"/>
     <use xlink:href="#DejaVuSans-48" transform="translate(240.4375 0)"/>
     <use xlink:href="#DejaVuSans-55" transform="translate(301.96875 0)"/>
     <use xlink:href="#DejaVuSans-3" transform="translate(343.078125 0)"/>
     <use xlink:href="#DejaVuSans-25" transform="translate(374.859375 0)"/>
     <use xlink:href="#DejaVuSans-44" transform="translate(443.46875 0)"/>
     <use xlink:href="#DejaVuSans-56" transform="translate(504.75 0)"/>
     <use xlink:href="#DejaVuSans-56" transform="translate(556.84375 0)"/>
     <use xlink:href="#DejaVuSans-50" transform="translate(608.9375 0)"/>
     <use xlink:href="#DejaVuSans-44" transform="translate(706.34375 0)"/>
     <use xlink:href="#DejaVuSans-51" transform="translate(767.625 0)"/>
     <use xlink:href="#DejaVuSans-3" transform="translate(831 0)"/>
     <use xlink:href="#DejaVuSans-19" transform="translate(862.78125 0)"/>
     <use xlink:href="#DejaVuSans-2a" transform="translate(926.40625 0)"/>
     <use xlink:href="#DejaVuSans-19" transform="translate(1003.890625 0)"/>
     <use xlink:href="#DejaVuSans-10" transform="translate(1067.515625 0)"/>
     <use xlink:href="#DejaVuSans-26" transform="translate(1103.59375 0)"/>
     <use xlink:href="#DejaVuSans-3" transform="translate(1173.421875 0)"/>
     <use xlink:href="#DejaVuSans-3" transform="translate(1205.203125 0)"/>
     <use xlink:href="#DejaVuSans-3" transform="translate(1236.984375 0)"/>
     <use xlink:href="#DejaVuSans-5f" transform="translate(1268.765625 0)"/>
     <use xlink:href="#DejaVuSans-3" transform="translate(1302.453125 0)"/>
     <use xlink:href="#DejaVuSans-3" transform="translate(1334.234375 0)"/>
     <use xlink:href="#DejaVuSans-3" transform="translate(1366.015625 0)"/>
     <use xlink:href="#DejaVuSans-57" transform="translate(1397.796875 0)"/>
     <use xlink:href="#DejaVuSans-58" transform="translate(1437 0)"/>
     <use xlink:href="#DejaVuSans-45" transform="translate(1500.375 0)"/>
     <use xlink:href="#DejaVuSans-48" transform="translate(1563.859375 0)"/>
     <use xlink:href="#DejaVuSans-56" transform="translate(1625.390625 0)"/>
     <use xlink:href="#DejaVuSans-1d" transform="translate(1677.484375 0)"/>
     <use xlink:href="#DejaVuSans-3" transform="translate(1711.171875 0)"/>
     <use xlink:href="#DejaVuSans-18" transform="translate(1742.953125 0)"/>
     <use xlink:href="#DejaVuSans-1b" transform="translate(1806.578125 0)"/>
     <use xlink:href="#DejaVuSans-1b" transform="translate(1870.203125 0)"/>
     <use xlink:href="#DejaVuSans-14" transform="translate(1933.828125 0)"/>
     <use xlink:href="#DejaVuSans-3" transform="translate(1997.453125 0)"/>
     <use xlink:href="#DejaVuSans-e" transform="translate(2029.234375 0)"/>
     <use xlink:href="#DejaVuSans-3" transform="translate(2113.03125 0)"/>
     <use xlink:href="#DejaVuSans-1a" transform="translate(2144.8125 0)"/>
     <use xlink:href="#DejaVuSans-13" transform="translate(2208.4375 0)"/>
     <use xlink:href="#DejaVuSans-15" transform="translate(2272.0625 0)"/>
     <use xlink:href="#DejaVuSans-18" transform="translate(2335.6875 0)"/>
     <use xlink:href="#DejaVuSans-3" transform="translate(2399.3125 0)"/>
     <use xlink:href="#DejaVuSans-3" transform="translate(2431.09375 0)"/>
     <use xlink:href="#DejaVuSans-3" transform="translate(2462.875 0)"/>
     <use xlink:href="#DejaVuSans-5f" transform="translate(2494.65625 0)"/>
     <use xlink:href="#DejaVuSans-3" transform="translate(2528.34375 0)"/>
     <use xlink:href="#DejaVuSans-3" transform="translate(2560.125 0)"/>
     <use xlink:href="#DejaVuSans-3" transform="translate(2591.90625 0)"/>
     <use xlink:href="#DejaVuSans-36" transform="translate(2623.6875 0)"/>
     <use xlink:href="#DejaVuSans-36" transform="translate(2687.171875 0)"/>
     <use xlink:href="#DejaVuSans-3" transform="translate(2750.65625 0)"/>
     <use xlink:href="#DejaVuSans-55" transform="translate(2782.4375 0)"/>
     <use xlink:href="#DejaVuSans-48" transform="translate(2821.34375 0)"/>
     <use xlink:href="#DejaVuSans-46" transform="translate(2882.875 0)"/>
     <use xlink:href="#DejaVuSans-57" transform="translate(2937.859375 0)"/>
     <use xlink:href="#DejaVuSans-4c" transform="translate(2977.0625 0)"/>
     <use xlink:href="#DejaVuSans-13af" transform="translate(3004.84375 0)"/>
     <use xlink:href="#DejaVuSans-48" transform="translate(3067.828125 0)"/>
     <use xlink:href="#DejaVuSans-55" transform="translate(3129.359375 0)"/>
     <use xlink:href="#DejaVuSans-3" transform="translate(3170.46875 0)"/>
     <use xlink:href="#DejaVuSans-3" transform="translate(3202.25 0)"/>
     <use xlink:href="#DejaVuSans-3" transform="translate(3234.03125 0)"/>
     <use xlink:href="#DejaVuSans-5f" transform="translate(3265.8125 0)"/>
     <use xlink:href="#DejaVuSans-3" transform="translate(3299.5 0)"/>
     <use xlink:href="#DejaVuSans-3" transform="translate(3331.28125 0)"/>
     <use xlink:href="#DejaVuSans-3" transform="translate(3363.0625 0)"/>
     <use xlink:href="#DejaVuSans-57" transform="translate(3394.84375 0)"/>
     <use xlink:href="#DejaVuSans-55" transform="translate(3434.046875 0)"/>
     <use xlink:href="#DejaVuSans-44" transform="translate(3475.15625 0)"/>
     <use xlink:href="#DejaVuSans-51" transform="translate(3536.4375 0)"/>
     <use xlink:href="#DejaVuSans-56" transform="translate(3599.8125 0)"/>
     <use xlink:href="#DejaVuSans-49" transform="translate(3651.90625 0)"/>
     <use xlink:href="#DejaVuSans-52" transform="translate(3687.109375 0)"/>
     <use xlink:href="#DejaVuSans-55" transform="translate(3748.296875 0)"/>
     <use xlink:href="#DejaVuSans-50" transform="translate(3787.65625 0)"/>
     <use xlink:href="#DejaVuSans-48" transform="translate(3885.0625 0)"/>
     <use xlink:href="#DejaVuSans-55" transform="translate(3946.59375 0)"/>
     <use xlink:href="#DejaVuSans-56" transform="translate(3987.703125 0)"/>
     <use xlink:href="#DejaVuSans-1d" transform="translate(4039.796875 0)"/>
     <use xlink:href="#DejaVuSans-3" transform="translate(4073.484375 0)"/>
     <use xlink:href="#DejaVuSans-14" transform="translate(4105.265625 0)"/>
     <use xlink:href="#DejaVuSans-15" transform="translate(4168.890625 0)"/>
     <use xlink:href="#DejaVuSans-18" transform="translate(4232.515625 0)"/>
     <use xlink:href="#DejaVuSans-33" transform="translate(4296.140625 0)"/>
     <use xlink:href="#DejaVuSans-1a" transform="translate(4356.4375 0)"/>
     <use xlink:href="#DejaVuSans-24" transform="translate(4420.0625 0)"/>
     <use xlink:href="#DejaVuSans-f" transform="translate(4488.46875 0)"/>
     <use xlink:href="#DejaVuSans-3" transform="translate(4520.25 0)"/>
     <use xlink:href="#DejaVuSans-14" transform="translate(4552.03125 0)"/>
     <use xlink:href="#DejaVuSans-15" transform="translate(4615.65625 0)"/>
     <use xlink:href="#DejaVuSans-18" transform="translate(4679.28125 0)"/>
     <use xlink:href="#DejaVuSans-26" transform="translate(4742.90625 0)"/>
     <use xlink:href="#DejaVuSans-14" transform="translate(4812.734375 0)"/>
     <use xlink:href="#DejaVuSans-24" transform="translate(4876.359375 0)"/>
     <use xlink:href="#DejaVuSans-f" transform="translate(4944.765625 0)"/>
     <use xlink:href="#DejaVuSans-3" transform="translate(4976.546875 0)"/>
     <use xlink:href="#DejaVuSans-14" transform="translate(5008.328125 0)"/>
     <use xlink:href="#DejaVuSans-15" transform="translate(5071.953125 0)"/>
     <use xlink:href="#DejaVuSans-18" transform="translate(5135.578125 0)"/>
     <use xlink:href="#DejaVuSans-24" transform="translate(5199.203125 0)"/>
     <use xlink:href="#DejaVuSans-14" transform="translate(5267.609375 0)"/>
     <use xlink:href="#DejaVuSans-16" transform="translate(5331.234375 0)"/>
     <use xlink:href="#DejaVuSans-24" transform="translate(5394.859375 0)"/>
    </g>
   </g>
  </g>
 </g>
 <defs>
  <clipPath id="pacfd096c0f">
   <rect x="31.832609" y="0" width="939.327" height="122.76"/>
  </clipPath>
 </defs>
</svg>
