<?xml version="1.0" encoding="utf-8" standalone="no"?>
<!DOCTYPE svg PUBLIC "-//W3C//DTD SVG 1.1//EN"
  "http://www.w3.org/Graphics/SVG/1.1/DTD/svg11.dtd">
<svg xmlns:xlink="http://www.w3.org/1999/xlink" width="217.554pt" height="385.4pt" viewBox="0 0 217.554 385.4" xmlns="http://www.w3.org/2000/svg" version="1.1">
 <metadata>
  <rdf:RDF xmlns:dc="http://purl.org/dc/elements/1.1/" xmlns:cc="http://creativecommons.org/ns#" xmlns:rdf="http://www.w3.org/1999/02/22-rdf-syntax-ns#">
   <cc:Work>
    <dc:type rdf:resource="http://purl.org/dc/dcmitype/StillImage"/>
    <dc:date>2026-06-28T18:33:55.881970</dc:date>
    <dc:format>image/svg+xml</dc:format>
    <dc:creator>
     <cc:Agent>
      <dc:title>Matplotlib v3.11.0, https://matplotlib.org/</dc:title>
     </cc:Agent>
    </dc:creator>
   </cc:Work>
  </rdf:RDF>
 </metadata>
 <defs>
  <style type="text/css">*{stroke-linejoin: round; stroke-linecap: butt}</style>
 </defs>
 <g id="figure_1">
  <g id="patch_1">
   <path d="M 0 385.4 
L 217.554 385.4 
L 217.554 0 
L 0 0 
z
" style="fill: #ffffff"/>
  </g>
  <g id="axes_1">
   <g id="patch_2">
    <path d="M 129.672 258.68 
L 130.171778 258.676035 
L 130.67143 258.664141 
L 131.17083 258.644321 
L 131.669853 258.61658 
L 132.168374 258.580925 
L 132.666265 258.537366 
L 133.163403 258.485912 
L 133.659662 258.426577 
L 134.154917 258.359375 
L 134.649044 258.284325 
L 135.141918 258.201444 
L 135.633414 258.110754 
L 136.12341 258.012277 
L 136.611782 257.906038 
L 137.098406 257.792064 
L 137.583162 257.670384 
L 138.065925 257.541028 
L 138.546576 257.404029 
L 139.024992 257.259421 
L 139.501054 257.10724 
L 139.974641 256.947526 
L 140.445635 256.780318 
L 140.913916 256.605658 
L 141.379367 256.42359 
L 141.841871 256.23416 
L 142.301312 256.037416 
L 142.757573 255.833408 
L 143.21054 255.622186 
L 143.660098 255.403804 
L 144.106135 255.178317 
L 144.548539 254.945781 
L 144.987197 254.706255 
L 145.422 254.4598 
L 145.852838 254.206478 
L 146.279602 253.946351 
L 146.702186 253.679486 
L 147.120482 253.40595 
L 147.534386 253.125812 
L 147.943793 252.839142 
L 148.3486 252.546013 
L 148.748705 252.246498 
L 149.144008 251.940672 
L 149.534409 251.628614 
L 149.91981 251.3104 
L 150.300113 250.986112 
L 150.675224 250.65583 
L 151.045046 250.319639 
L 151.409489 249.977622 
L 151.768459 249.629866 
L 152.121866 249.276459 
L 152.469622 248.917489 
L 152.811639 248.553046 
L 153.14783 248.183224 
L 153.478112 247.808113 
L 153.8024 247.42781 
L 154.120614 247.042409 
L 154.432672 246.652008 
L 154.738498 246.256705 
L 155.038013 245.8566 
L 155.331142 245.451793 
L 155.617812 245.042386 
L 155.89795 244.628482 
L 156.171486 244.210186 
L 156.438351 243.787602 
L 156.698478 243.360838 
L 156.9518 242.93 
L 157.198255 242.495197 
L 157.437781 242.056539 
L 157.670317 241.614135 
L 157.895804 241.168098 
L 158.114186 240.71854 
L 158.325408 240.265573 
L 158.529416 239.809312 
L 158.72616 239.349871 
L 158.91559 238.887367 
L 159.097658 238.421916 
L 159.272318 237.953635 
L 159.439526 237.482641 
L 159.59924 237.009054 
L 159.751421 236.532992 
L 159.896029 236.054576 
L 160.033028 235.573925 
L 160.162384 235.091162 
L 160.284064 234.606406 
L 160.398038 234.119782 
L 160.504277 233.63141 
L 160.602754 233.141414 
L 160.693444 232.649918 
L 160.776325 232.157044 
L 160.851375 231.662917 
L 160.918577 231.167662 
L 160.977912 230.671403 
L 161.029366 230.174265 
L 161.072925 229.676374 
L 161.10858 229.177853 
L 161.136321 228.67883 
L 161.156141 228.17943 
L 161.168035 227.679778 
L 161.172 227.18 
L 161.172 227.18 
L 161.168035 226.680222 
L 161.156141 226.18057 
L 161.136321 225.68117 
L 161.10858 225.182147 
L 161.072925 224.683626 
L 161.029366 224.185735 
L 160.977912 223.688597 
L 160.918577 223.192338 
L 160.851375 222.697083 
L 160.776325 222.202956 
L 160.693444 221.710082 
L 160.602754 221.218586 
L 160.504277 220.72859 
L 160.398038 220.240218 
L 160.284064 219.753594 
L 160.162384 219.268838 
L 160.033028 218.786075 
L 159.896029 218.305424 
L 159.751421 217.827008 
L 159.59924 217.350946 
L 159.439526 216.877359 
L 159.272318 216.406365 
L 159.097658 215.938084 
L 158.91559 215.472633 
L 158.72616 215.010129 
L 158.529416 214.550688 
L 158.325408 214.094427 
L 158.114186 213.64146 
L 157.895804 213.191902 
L 157.670317 212.745865 
L 157.437781 212.303461 
L 157.198255 211.864803 
L 156.9518 211.43 
L 156.698478 210.999162 
L 156.438351 210.572398 
L 156.171486 210.149814 
L 155.89795 209.731518 
L 155.617812 209.317614 
L 155.331142 208.908207 
L 155.038013 208.5034 
L 154.738498 208.103295 
L 154.432672 207.707992 
L 154.120614 207.317591 
L 153.8024 206.93219 
L 153.478112 206.551887 
L 153.14783 206.176776 
L 152.811639 205.806954 
L 152.469622 205.442511 
L 152.121866 205.083541 
L 151.768459 204.730134 
L 151.409489 204.382378 
L 151.045046 204.040361 
L 150.675224 203.70417 
L 150.300113 203.373888 
L 149.91981 203.0496 
L 149.534409 202.731386 
L 149.144008 202.419328 
L 148.748705 202.113502 
L 148.3486 201.813987 
L 147.943793 201.520858 
L 147.534386 201.234188 
L 147.120482 200.95405 
L 146.702186 200.680514 
L 146.279602 200.413649 
L 145.852838 200.153522 
L 145.422 199.9002 
L 144.987197 199.653745 
L 144.548539 199.414219 
L 144.106135 199.181683 
L 143.660098 198.956196 
L 143.21054 198.737814 
L 142.757573 198.526592 
L 142.301312 198.322584 
L 141.841871 198.12584 
L 141.379367 197.93641 
L 140.913916 197.754342 
L 140.445635 197.579682 
L 139.974641 197.412474 
L 139.501054 197.25276 
L 139.024992 197.100579 
L 138.546576 196.955971 
L 138.065925 196.818972 
L 137.583162 196.689616 
L 137.098406 196.567936 
L 136.611782 196.453962 
L 136.12341 196.347723 
L 135.633414 196.249246 
L 135.141918 196.158556 
L 134.649044 196.075675 
L 134.154917 196.000625 
L 133.659662 195.933423 
L 133.163403 195.874088 
L 132.666265 195.822634 
L 132.168374 195.779075 
L 131.669853 195.74342 
L 131.17083 195.715679 
L 130.67143 195.695859 
L 130.171778 195.683965 
L 129.672 195.68 
L 129.672 195.68 
L 129.172222 195.683965 
L 128.67257 195.695859 
L 128.17317 195.715679 
L 127.674147 195.74342 
L 127.175626 195.779075 
L 126.677735 195.822634 
L 126.180597 195.874088 
L 125.684338 195.933423 
L 125.189083 196.000625 
L 124.694956 196.075675 
L 124.202082 196.158556 
L 123.710586 196.249246 
L 123.22059 196.347723 
L 122.732218 196.453962 
L 122.245594 196.567936 
L 121.760838 196.689616 
L 121.278075 196.818972 
L 120.797424 196.955971 
L 120.319008 197.100579 
L 119.842946 197.25276 
L 119.369359 197.412474 
L 118.898365 197.579682 
L 118.430084 197.754342 
L 117.964633 197.93641 
L 117.502129 198.12584 
L 117.042688 198.322584 
L 116.586427 198.526592 
L 116.13346 198.737814 
L 115.683902 198.956196 
L 115.237865 199.181683 
L 114.795461 199.414219 
L 114.356803 199.653745 
L 113.922 199.9002 
L 113.491162 200.153522 
L 113.064398 200.413649 
L 112.641814 200.680514 
L 112.223518 200.95405 
L 111.809614 201.234188 
L 111.400207 201.520858 
L 110.9954 201.813987 
L 110.595295 202.113502 
L 110.199992 202.419328 
L 109.809591 202.731386 
L 109.42419 203.0496 
L 109.043887 203.373888 
L 108.668776 203.70417 
L 108.298954 204.040361 
L 107.934511 204.382378 
L 107.575541 204.730134 
L 107.222134 205.083541 
L 106.874378 205.442511 
L 106.532361 205.806954 
L 106.19617 206.176776 
L 105.865888 206.551887 
L 105.5416 206.93219 
L 105.223386 207.317591 
L 104.911328 207.707992 
L 104.605502 208.103295 
L 104.305987 208.5034 
L 104.012858 208.908207 
L 103.726188 209.317614 
L 103.44605 209.731518 
L 103.172514 210.149814 
L 102.905649 210.572398 
L 102.645522 210.999162 
L 102.3922 211.43 
L 102.145745 211.864803 
L 101.906219 212.303461 
L 101.673683 212.745865 
L 101.448196 213.191902 
L 101.229814 213.64146 
L 101.018592 214.094427 
L 100.814584 214.550688 
L 100.61784 215.010129 
L 100.42841 215.472633 
L 100.246342 215.938084 
L 100.071682 216.406365 
L 99.904474 216.877359 
L 99.74476 217.350946 
L 99.592579 217.827008 
L 99.447971 218.305424 
L 99.310972 218.786075 
L 99.181616 219.268838 
L 99.059936 219.753594 
L 98.945962 220.240218 
L 98.839723 220.72859 
L 98.741246 221.218586 
L 98.650556 221.710082 
L 98.567675 222.202956 
L 98.492625 222.697083 
L 98.425423 223.192338 
L 98.366088 223.688597 
L 98.314634 224.185735 
L 98.271075 224.683626 
L 98.23542 225.182147 
L 98.207679 225.68117 
L 98.187859 226.18057 
L 98.175965 226.680222 
L 98.172 227.18 
L 98.172 227.18 
L 98.175965 227.679778 
L 98.187859 228.17943 
L 98.207679 228.67883 
L 98.23542 229.177853 
L 98.271075 229.676374 
L 98.314634 230.174265 
L 98.366088 230.671403 
L 98.425423 231.167662 
L 98.492625 231.662917 
L 98.567675 232.157044 
L 98.650556 232.649918 
L 98.741246 233.141414 
L 98.839723 233.63141 
L 98.945962 234.119782 
L 99.059936 234.606406 
L 99.181616 235.091162 
L 99.310972 235.573925 
L 99.447971 236.054576 
L 99.592579 236.532992 
L 99.74476 237.009054 
L 99.904474 237.482641 
L 100.071682 237.953635 
L 100.246342 238.421916 
L 100.42841 238.887367 
L 100.61784 239.349871 
L 100.814584 239.809312 
L 101.018592 240.265573 
L 101.229814 240.71854 
L 101.448196 241.168098 
L 101.673683 241.614135 
L 101.906219 242.056539 
L 102.145745 242.495197 
L 102.3922 242.93 
L 102.645522 243.360838 
L 102.905649 243.787602 
L 103.172514 244.210186 
L 103.44605 244.628482 
L 103.726188 245.042386 
L 104.012858 245.451793 
L 104.305987 245.8566 
L 104.605502 246.256705 
L 104.911328 246.652008 
L 105.223386 247.042409 
L 105.5416 247.42781 
L 105.865888 247.808113 
L 106.19617 248.183224 
L 106.532361 248.553046 
L 106.874378 248.917489 
L 107.222134 249.276459 
L 107.575541 249.629866 
L 107.934511 249.977622 
L 108.298954 250.319639 
L 108.668776 250.65583 
L 109.043887 250.986112 
L 109.42419 251.3104 
L 109.809591 251.628614 
L 110.199992 251.940672 
L 110.595295 252.246498 
L 110.9954 252.546013 
L 111.400207 252.839142 
L 111.809614 253.125812 
L 112.223518 253.40595 
L 112.641814 253.679486 
L 113.064398 253.946351 
L 113.491162 254.206478 
L 113.922 254.4598 
L 114.356803 254.706255 
L 114.795461 254.945781 
L 115.237865 255.178317 
L 115.683902 255.403804 
L 116.13346 255.622186 
L 116.586427 255.833408 
L 117.042688 256.037416 
L 117.502129 256.23416 
L 117.964633 256.42359 
L 118.430084 256.605658 
L 118.898365 256.780318 
L 119.369359 256.947526 
L 119.842946 257.10724 
L 120.319008 257.259421 
L 120.797424 257.404029 
L 121.278075 257.541028 
L 121.760838 257.670384 
L 122.245594 257.792064 
L 122.732218 257.906038 
L 123.22059 258.012277 
L 123.710586 258.110754 
L 124.202082 258.201444 
L 124.694956 258.284325 
L 125.189083 258.359375 
L 125.684338 258.426577 
L 126.180597 258.485912 
L 126.677735 258.537366 
L 127.175626 258.580925 
L 127.674147 258.61658 
L 128.17317 258.644321 
L 128.67257 258.664141 
L 129.172222 258.676035 
L 129.672 258.68 
L 129.672 258.68 
z
" clip-path="url(#p83f63673b0)" style="fill: none; stroke: #000000; stroke-width: 2.5; stroke-linecap: round"/>
   </g>
   <g id="line2d_1">
    <path d="M 21.672 249.68 
L 57.672 249.68 
L 60.672 240.68 
L 66.672 258.68 
L 72.672 240.68 
L 78.672 258.68 
L 84.672 240.68 
L 90.672 258.68 
L 93.672 249.68 
L 129.672 249.68 
" clip-path="url(#p83f63673b0)" style="fill: none; stroke: #000000; stroke-width: 2; stroke-linecap: round"/>
   </g>
   <g id="line2d_2">
    <path d="M 129.672 249.68 
L 129.672 285.68 
L 138.672 288.68 
L 120.672 294.68 
L 138.672 300.68 
L 120.672 306.68 
L 138.672 312.68 
L 120.672 318.68 
L 129.672 321.68 
L 129.672 357.68 
" clip-path="url(#p83f63673b0)" style="fill: none; stroke: #000000; stroke-width: 2; stroke-linecap: round"/>
   </g>
   <g id="line2d_3">
    <path d="M 129.672 357.68 
L 129.672 372.08 
L 120.672 372.08 
L 138.672 372.08 
M 123.372 376.4 
L 135.972 376.4 
M 127.872 380.72 
L 131.472 380.72 
" clip-path="url(#p83f63673b0)" style="fill: none; stroke: #000000; stroke-width: 2; stroke-linecap: round"/>
   </g>
   <g id="line2d_4">
    <path d="M 129.672 249.68 
L 129.672 222.68 
L 129.672 195.68 
" clip-path="url(#p83f63673b0)" style="fill: none; stroke: #000000; stroke-width: 2; stroke-linecap: round"/>
   </g>
   <g id="line2d_5">
    <path d="M 117.072 220.18 
L 142.272 220.18 
" clip-path="url(#p83f63673b0)" style="fill: none; stroke: #000000; stroke-width: 2; stroke-linecap: round"/>
   </g>
   <g id="line2d_6">
    <path d="M 129.672 195.68 
L 129.672 220.18 
" clip-path="url(#p83f63673b0)" style="fill: none; stroke: #000000; stroke-width: 2; stroke-linecap: round"/>
   </g>
   <g id="line2d_7">
    <path d="M 117.072 227.18 
L 122.112 227.18 
" clip-path="url(#p83f63673b0)" style="fill: none; stroke: #000000; stroke-width: 2; stroke-linecap: round"/>
   </g>
   <g id="line2d_8">
    <path d="M 127.152 227.18 
L 132.192 227.18 
" clip-path="url(#p83f63673b0)" style="fill: none; stroke: #000000; stroke-width: 2; stroke-linecap: round"/>
   </g>
   <g id="line2d_9">
    <path d="M 137.232 227.18 
L 142.272 227.18 
" clip-path="url(#p83f63673b0)" style="fill: none; stroke: #000000; stroke-width: 2; stroke-linecap: round"/>
   </g>
   <g id="line2d_10">
    <path d="M 117.072 239.58 
L 117.072 234.18 
L 142.272 234.18 
L 142.272 239.58 
" clip-path="url(#p83f63673b0)" style="fill: none; stroke: #000000; stroke-width: 2; stroke-linecap: round"/>
   </g>
   <g id="line2d_11">
    <path d="M 129.672 195.68 
L 129.672 168.68 
L 129.672 141.68 
" clip-path="url(#p83f63673b0)" style="fill: none; stroke: #000000; stroke-width: 2; stroke-linecap: round"/>
   </g>
   <g id="line2d_12">
    <path d="M 129.672 141.68 
L 129.672 105.68 
L 120.672 102.68 
L 138.672 96.68 
L 120.672 90.68 
L 138.672 84.68 
L 120.672 78.68 
L 138.672 72.68 
L 129.672 69.68 
L 129.672 33.68 
" clip-path="url(#p83f63673b0)" style="fill: none; stroke: #000000; stroke-width: 2; stroke-linecap: round"/>
   </g>
   <g id="line2d_13">
    <path d="M 129.672 33.68 
L 129.672 19.28 
" clip-path="url(#p83f63673b0)" style="fill: none; stroke: #000000; stroke-width: 2; stroke-linecap: round"/>
   </g>
   <g id="line2d_14">
    <path d="M 129.672 19.28 
L 122.922 19.28 
" clip-path="url(#p83f63673b0)" style="fill: none; stroke: #000000; stroke-width: 2; stroke-linecap: round"/>
   </g>
   <g id="line2d_15">
    <path d="M 129.672 19.28 
L 136.422 19.28 
" clip-path="url(#p83f63673b0)" style="fill: none; stroke: #000000; stroke-width: 2; stroke-linecap: round"/>
   </g>
   <g id="line2d_16">
    <path d="M 129.672 33.68 
L 156.672 33.68 
L 183.672 33.68 
" clip-path="url(#p83f63673b0)" style="fill: none; stroke: #000000; stroke-width: 2; stroke-linecap: round"/>
   </g>
   <g id="text_1">
    <!-- 68k -->
    <g transform="translate(65.488406 224.680937) scale(0.11 -0.11)">
     <defs>
      <path id="DejaVuSans-19" d="M 2113 2584 
Q 1688 2584 1439 2293 
Q 1191 2003 1191 1497 
Q 1191 994 1439 701 
Q 1688 409 2113 409 
Q 2538 409 2786 701 
Q 3034 994 3034 1497 
Q 3034 2003 2786 2293 
Q 2538 2584 2113 2584 
z
M 3366 4563 
L 3366 3988 
Q 3128 4100 2886 4159 
Q 2644 4219 2406 4219 
Q 1781 4219 1451 3797 
Q 1122 3375 1075 2522 
Q 1259 2794 1537 2939 
Q 1816 3084 2150 3084 
Q 2853 3084 3261 2657 
Q 3669 2231 3669 1497 
Q 3669 778 3244 343 
Q 2819 -91 2113 -91 
Q 1303 -91 875 529 
Q 447 1150 447 2328 
Q 447 3434 972 4092 
Q 1497 4750 2381 4750 
Q 2619 4750 2861 4703 
Q 3103 4656 3366 4563 
z
" transform="scale(0.015625)"/>
      <path id="DejaVuSans-1b" d="M 2034 2216 
Q 1584 2216 1326 1975 
Q 1069 1734 1069 1313 
Q 1069 891 1326 650 
Q 1584 409 2034 409 
Q 2484 409 2743 651 
Q 3003 894 3003 1313 
Q 3003 1734 2745 1975 
Q 2488 2216 2034 2216 
z
M 1403 2484 
Q 997 2584 770 2862 
Q 544 3141 544 3541 
Q 544 4100 942 4425 
Q 1341 4750 2034 4750 
Q 2731 4750 3128 4425 
Q 3525 4100 3525 3541 
Q 3525 3141 3298 2862 
Q 3072 2584 2669 2484 
Q 3125 2378 3379 2068 
Q 3634 1759 3634 1313 
Q 3634 634 3220 271 
Q 2806 -91 2034 -91 
Q 1263 -91 848 271 
Q 434 634 434 1313 
Q 434 1759 690 2068 
Q 947 2378 1403 2484 
z
M 1172 3481 
Q 1172 3119 1398 2916 
Q 1625 2713 2034 2713 
Q 2441 2713 2670 2916 
Q 2900 3119 2900 3481 
Q 2900 3844 2670 4047 
Q 2441 4250 2034 4250 
Q 1625 4250 1398 4047 
Q 1172 3844 1172 3481 
z
" transform="scale(0.015625)"/>
      <path id="DejaVuSans-4e" d="M 581 4863 
L 1159 4863 
L 1159 1991 
L 2875 3500 
L 3609 3500 
L 1753 1863 
L 3688 0 
L 2938 0 
L 1159 1709 
L 1159 0 
L 581 0 
L 581 4863 
z
" transform="scale(0.015625)"/>
     </defs>
     <use xlink:href="#DejaVuSans-19"/>
     <use xlink:href="#DejaVuSans-1b" transform="translate(63.625 0)"/>
     <use xlink:href="#DejaVuSans-4e" transform="translate(127.25 0)"/>
    </g>
    <!-- grid stop -->
    <g transform="translate(51.273484 234.615312) scale(0.11 -0.11)">
     <defs>
      <path id="DejaVuSans-4a" d="M 2906 1791 
Q 2906 2416 2648 2759 
Q 2391 3103 1925 3103 
Q 1463 3103 1205 2759 
Q 947 2416 947 1791 
Q 947 1169 1205 825 
Q 1463 481 1925 481 
Q 2391 481 2648 825 
Q 2906 1169 2906 1791 
z
M 3481 434 
Q 3481 -459 3084 -895 
Q 2688 -1331 1869 -1331 
Q 1566 -1331 1297 -1286 
Q 1028 -1241 775 -1147 
L 775 -588 
Q 1028 -725 1275 -790 
Q 1522 -856 1778 -856 
Q 2344 -856 2625 -561 
Q 2906 -266 2906 331 
L 2906 616 
Q 2728 306 2450 153 
Q 2172 0 1784 0 
Q 1141 0 747 490 
Q 353 981 353 1791 
Q 353 2603 747 3093 
Q 1141 3584 1784 3584 
Q 2172 3584 2450 3431 
Q 2728 3278 2906 2969 
L 2906 3500 
L 3481 3500 
L 3481 434 
z
" transform="scale(0.015625)"/>
      <path id="DejaVuSans-55" d="M 2631 2963 
Q 2534 3019 2420 3045 
Q 2306 3072 2169 3072 
Q 1681 3072 1420 2755 
Q 1159 2438 1159 1844 
L 1159 0 
L 581 0 
L 581 3500 
L 1159 3500 
L 1159 2956 
Q 1341 3275 1631 3429 
Q 1922 3584 2338 3584 
Q 2397 3584 2469 3576 
Q 2541 3569 2628 3553 
L 2631 2963 
z
" transform="scale(0.015625)"/>
      <path id="DejaVuSans-4c" d="M 603 3500 
L 1178 3500 
L 1178 0 
L 603 0 
L 603 3500 
z
M 603 4863 
L 1178 4863 
L 1178 4134 
L 603 4134 
L 603 4863 
z
" transform="scale(0.015625)"/>
      <path id="DejaVuSans-47" d="M 2906 2969 
L 2906 4863 
L 3481 4863 
L 3481 0 
L 2906 0 
L 2906 525 
Q 2725 213 2448 61 
Q 2172 -91 1784 -91 
Q 1150 -91 751 415 
Q 353 922 353 1747 
Q 353 2572 751 3078 
Q 1150 3584 1784 3584 
Q 2172 3584 2448 3432 
Q 2725 3281 2906 2969 
z
M 947 1747 
Q 947 1113 1208 752 
Q 1469 391 1925 391 
Q 2381 391 2643 752 
Q 2906 1113 2906 1747 
Q 2906 2381 2643 2742 
Q 2381 3103 1925 3103 
Q 1469 3103 1208 2742 
Q 947 2381 947 1747 
z
" transform="scale(0.015625)"/>
      <path id="DejaVuSans-3" transform="scale(0.015625)"/>
      <path id="DejaVuSans-56" d="M 2834 3397 
L 2834 2853 
Q 2591 2978 2328 3040 
Q 2066 3103 1784 3103 
Q 1356 3103 1142 2972 
Q 928 2841 928 2578 
Q 928 2378 1081 2264 
Q 1234 2150 1697 2047 
L 1894 2003 
Q 2506 1872 2764 1633 
Q 3022 1394 3022 966 
Q 3022 478 2636 193 
Q 2250 -91 1575 -91 
Q 1294 -91 989 -36 
Q 684 19 347 128 
L 347 722 
Q 666 556 975 473 
Q 1284 391 1588 391 
Q 1994 391 2212 530 
Q 2431 669 2431 922 
Q 2431 1156 2273 1281 
Q 2116 1406 1581 1522 
L 1381 1569 
Q 847 1681 609 1914 
Q 372 2147 372 2553 
Q 372 3047 722 3315 
Q 1072 3584 1716 3584 
Q 2034 3584 2315 3537 
Q 2597 3491 2834 3397 
z
" transform="scale(0.015625)"/>
      <path id="DejaVuSans-57" d="M 1172 4494 
L 1172 3500 
L 2356 3500 
L 2356 3053 
L 1172 3053 
L 1172 1153 
Q 1172 725 1289 603 
Q 1406 481 1766 481 
L 2356 481 
L 2356 0 
L 1766 0 
Q 1100 0 847 248 
Q 594 497 594 1153 
L 594 3053 
L 172 3053 
L 172 3500 
L 594 3500 
L 594 4494 
L 1172 4494 
z
" transform="scale(0.015625)"/>
      <path id="DejaVuSans-52" d="M 1959 3097 
Q 1497 3097 1228 2736 
Q 959 2375 959 1747 
Q 959 1119 1226 758 
Q 1494 397 1959 397 
Q 2419 397 2687 759 
Q 2956 1122 2956 1747 
Q 2956 2369 2687 2733 
Q 2419 3097 1959 3097 
z
M 1959 3584 
Q 2709 3584 3137 3096 
Q 3566 2609 3566 1747 
Q 3566 888 3137 398 
Q 2709 -91 1959 -91 
Q 1206 -91 779 398 
Q 353 888 353 1747 
Q 353 2609 779 3096 
Q 1206 3584 1959 3584 
z
" transform="scale(0.015625)"/>
      <path id="DejaVuSans-53" d="M 1159 525 
L 1159 -1331 
L 581 -1331 
L 581 3500 
L 1159 3500 
L 1159 2969 
Q 1341 3281 1617 3432 
Q 1894 3584 2278 3584 
Q 2916 3584 3314 3078 
Q 3713 2572 3713 1747 
Q 3713 922 3314 415 
Q 2916 -91 2278 -91 
Q 1894 -91 1617 61 
Q 1341 213 1159 525 
z
M 3116 1747 
Q 3116 2381 2855 2742 
Q 2594 3103 2138 3103 
Q 1681 3103 1420 2742 
Q 1159 2381 1159 1747 
Q 1159 1113 1420 752 
Q 1681 391 2138 391 
Q 2594 391 2855 752 
Q 3116 1113 3116 1747 
z
" transform="scale(0.015625)"/>
     </defs>
     <use xlink:href="#DejaVuSans-4a"/>
     <use xlink:href="#DejaVuSans-55" transform="translate(63.484375 0)"/>
     <use xlink:href="#DejaVuSans-4c" transform="translate(104.59375 0)"/>
     <use xlink:href="#DejaVuSans-47" transform="translate(132.375 0)"/>
     <use xlink:href="#DejaVuSans-3" transform="translate(195.859375 0)"/>
     <use xlink:href="#DejaVuSans-56" transform="translate(227.640625 0)"/>
     <use xlink:href="#DejaVuSans-57" transform="translate(279.734375 0)"/>
     <use xlink:href="#DejaVuSans-52" transform="translate(318.9375 0)"/>
     <use xlink:href="#DejaVuSans-53" transform="translate(380.125 0)"/>
    </g>
   </g>
   <g id="text_2">
    <!-- 1M -->
    <g transform="translate(100.582312 302.189844) scale(0.11 -0.11)">
     <defs>
      <path id="DejaVuSans-14" d="M 794 531 
L 1825 531 
L 1825 4091 
L 703 3866 
L 703 4441 
L 1819 4666 
L 2450 4666 
L 2450 531 
L 3481 531 
L 3481 0 
L 794 0 
L 794 531 
z
" transform="scale(0.015625)"/>
      <path id="DejaVuSans-30" d="M 628 4666 
L 1569 4666 
L 2759 1491 
L 3956 4666 
L 4897 4666 
L 4897 0 
L 4281 0 
L 4281 4097 
L 3078 897 
L 2444 897 
L 1241 4097 
L 1241 0 
L 628 0 
L 628 4666 
z
" transform="scale(0.015625)"/>
     </defs>
     <use xlink:href="#DejaVuSans-14"/>
     <use xlink:href="#DejaVuSans-30" transform="translate(63.625 0)"/>
    </g>
    <!-- grid ref -->
    <g transform="translate(77.111062 312.215312) scale(0.11 -0.11)">
     <defs>
      <path id="DejaVuSans-48" d="M 3597 1894 
L 3597 1613 
L 953 1613 
Q 991 1019 1311 708 
Q 1631 397 2203 397 
Q 2534 397 2845 478 
Q 3156 559 3463 722 
L 3463 178 
Q 3153 47 2828 -22 
Q 2503 -91 2169 -91 
Q 1331 -91 842 396 
Q 353 884 353 1716 
Q 353 2575 817 3079 
Q 1281 3584 2069 3584 
Q 2775 3584 3186 3129 
Q 3597 2675 3597 1894 
z
M 3022 2063 
Q 3016 2534 2758 2815 
Q 2500 3097 2075 3097 
Q 1594 3097 1305 2825 
Q 1016 2553 972 2059 
L 3022 2063 
z
" transform="scale(0.015625)"/>
      <path id="DejaVuSans-49" d="M 2375 4863 
L 2375 4384 
L 1825 4384 
Q 1516 4384 1395 4259 
Q 1275 4134 1275 3809 
L 1275 3500 
L 2222 3500 
L 2222 3053 
L 1275 3053 
L 1275 0 
L 697 0 
L 697 3053 
L 147 3053 
L 147 3500 
L 697 3500 
L 697 3744 
Q 697 4328 969 4595 
Q 1241 4863 1831 4863 
L 2375 4863 
z
" transform="scale(0.015625)"/>
     </defs>
     <use xlink:href="#DejaVuSans-4a"/>
     <use xlink:href="#DejaVuSans-55" transform="translate(63.484375 0)"/>
     <use xlink:href="#DejaVuSans-4c" transform="translate(104.59375 0)"/>
     <use xlink:href="#DejaVuSans-47" transform="translate(132.375 0)"/>
     <use xlink:href="#DejaVuSans-3" transform="translate(195.859375 0)"/>
     <use xlink:href="#DejaVuSans-55" transform="translate(227.640625 0)"/>
     <use xlink:href="#DejaVuSans-48" transform="translate(266.546875 0)"/>
     <use xlink:href="#DejaVuSans-49" transform="translate(328.078125 0)"/>
    </g>
   </g>
   <g id="text_3">
    <!-- V1 -->
    <g transform="translate(122.410281 179.589844) scale(0.11 -0.11)">
     <defs>
      <path id="DejaVuSans-39" d="M 1831 0 
L 50 4666 
L 709 4666 
L 2188 738 
L 3669 4666 
L 4325 4666 
L 2547 0 
L 1831 0 
z
" transform="scale(0.015625)"/>
     </defs>
     <use xlink:href="#DejaVuSans-39"/>
     <use xlink:href="#DejaVuSans-14" transform="translate(68.40625 0)"/>
    </g>
    <!-- ½ 12AX7 -->
    <g transform="translate(104.565359 190.583828) scale(0.11 -0.11)">
     <defs>
      <path id="DejaVuSans-7f" d="M 488 2431 
L 1125 2431 
L 1125 4341 
L 428 4213 
L 428 4575 
L 1147 4697 
L 1575 4697 
L 1575 2431 
L 2216 2431 
L 2216 2088 
L 488 2088 
L 488 2431 
z
M 4472 356 
L 5797 356 
L 5797 0 
L 3928 0 
L 3928 343 
Q 4034 440 4231 615 
Q 5306 1568 5306 1862 
Q 5306 2068 5143 2194 
Q 4981 2321 4715 2321 
Q 4553 2321 4362 2266 
Q 4172 2212 3947 2103 
L 3947 2487 
Q 4187 2575 4395 2618 
Q 4603 2662 4781 2662 
Q 5234 2662 5506 2456 
Q 5778 2250 5778 1912 
Q 5778 1478 4743 590 
Q 4568 440 4472 356 
z
M 4307 4750 
L 4807 4750 
L 1894 -91 
L 1394 -91 
L 4307 4750 
z
" transform="scale(0.015625)"/>
      <path id="DejaVuSans-15" d="M 1228 531 
L 3431 531 
L 3431 0 
L 469 0 
L 469 531 
Q 828 903 1448 1529 
Q 2069 2156 2228 2338 
Q 2531 2678 2651 2914 
Q 2772 3150 2772 3378 
Q 2772 3750 2511 3984 
Q 2250 4219 1831 4219 
Q 1534 4219 1204 4116 
Q 875 4013 500 3803 
L 500 4441 
Q 881 4594 1212 4672 
Q 1544 4750 1819 4750 
Q 2544 4750 2975 4387 
Q 3406 4025 3406 3419 
Q 3406 3131 3298 2873 
Q 3191 2616 2906 2266 
Q 2828 2175 2409 1742 
Q 1991 1309 1228 531 
z
" transform="scale(0.015625)"/>
      <path id="DejaVuSans-24" d="M 2188 4044 
L 1331 1722 
L 3047 1722 
L 2188 4044 
z
M 1831 4666 
L 2547 4666 
L 4325 0 
L 3669 0 
L 3244 1197 
L 1141 1197 
L 716 0 
L 50 0 
L 1831 4666 
z
" transform="scale(0.015625)"/>
      <path id="DejaVuSans-3b" d="M 403 4666 
L 1081 4666 
L 2241 2931 
L 3406 4666 
L 4084 4666 
L 2584 2425 
L 4184 0 
L 3506 0 
L 2194 1984 
L 872 0 
L 191 0 
L 1856 2491 
L 403 4666 
z
" transform="scale(0.015625)"/>
      <path id="DejaVuSans-1a" d="M 525 4666 
L 3525 4666 
L 3525 4397 
L 1831 0 
L 1172 0 
L 2766 4134 
L 525 4134 
L 525 4666 
z
" transform="scale(0.015625)"/>
     </defs>
     <use xlink:href="#DejaVuSans-7f"/>
     <use xlink:href="#DejaVuSans-3" transform="translate(96.921875 0)"/>
     <use xlink:href="#DejaVuSans-14" transform="translate(128.703125 0)"/>
     <use xlink:href="#DejaVuSans-15" transform="translate(192.328125 0)"/>
     <use xlink:href="#DejaVuSans-24" transform="translate(255.953125 0)"/>
     <use xlink:href="#DejaVuSans-3b" transform="translate(324.359375 0)"/>
     <use xlink:href="#DejaVuSans-1a" transform="translate(392.859375 0)"/>
    </g>
   </g>
   <g id="text_4">
    <!-- 100k -->
    <g transform="translate(89.706063 86.280937) scale(0.11 -0.11)">
     <defs>
      <path id="DejaVuSans-13" d="M 2034 4250 
Q 1547 4250 1301 3770 
Q 1056 3291 1056 2328 
Q 1056 1369 1301 889 
Q 1547 409 2034 409 
Q 2525 409 2770 889 
Q 3016 1369 3016 2328 
Q 3016 3291 2770 3770 
Q 2525 4250 2034 4250 
z
M 2034 4750 
Q 2819 4750 3233 4129 
Q 3647 3509 3647 2328 
Q 3647 1150 3233 529 
Q 2819 -91 2034 -91 
Q 1250 -91 836 529 
Q 422 1150 422 2328 
Q 422 3509 836 4129 
Q 1250 4750 2034 4750 
z
" transform="scale(0.015625)"/>
     </defs>
     <use xlink:href="#DejaVuSans-14"/>
     <use xlink:href="#DejaVuSans-13" transform="translate(63.625 0)"/>
     <use xlink:href="#DejaVuSans-13" transform="translate(127.25 0)"/>
     <use xlink:href="#DejaVuSans-4e" transform="translate(190.875 0)"/>
    </g>
    <!-- plate -->
    <g transform="translate(89.211062 96.215312) scale(0.11 -0.11)">
     <defs>
      <path id="DejaVuSans-4f" d="M 603 4863 
L 1178 4863 
L 1178 0 
L 603 0 
L 603 4863 
z
" transform="scale(0.015625)"/>
      <path id="DejaVuSans-44" d="M 2194 1759 
Q 1497 1759 1228 1600 
Q 959 1441 959 1056 
Q 959 750 1161 570 
Q 1363 391 1709 391 
Q 2188 391 2477 730 
Q 2766 1069 2766 1631 
L 2766 1759 
L 2194 1759 
z
M 3341 1997 
L 3341 0 
L 2766 0 
L 2766 531 
Q 2569 213 2275 61 
Q 1981 -91 1556 -91 
Q 1019 -91 701 211 
Q 384 513 384 1019 
Q 384 1609 779 1909 
Q 1175 2209 1959 2209 
L 2766 2209 
L 2766 2266 
Q 2766 2663 2505 2880 
Q 2244 3097 1772 3097 
Q 1472 3097 1187 3025 
Q 903 2953 641 2809 
L 641 3341 
Q 956 3463 1253 3523 
Q 1550 3584 1831 3584 
Q 2591 3584 2966 3190 
Q 3341 2797 3341 1997 
z
" transform="scale(0.015625)"/>
     </defs>
     <use xlink:href="#DejaVuSans-53"/>
     <use xlink:href="#DejaVuSans-4f" transform="translate(63.484375 0)"/>
     <use xlink:href="#DejaVuSans-44" transform="translate(91.265625 0)"/>
     <use xlink:href="#DejaVuSans-57" transform="translate(152.546875 0)"/>
     <use xlink:href="#DejaVuSans-48" transform="translate(191.75 0)"/>
    </g>
   </g>
   <g id="text_5">
    <!-- +300V -->
    <g transform="translate(110.802703 14.183828) scale(0.11 -0.11)">
     <defs>
      <path id="DejaVuSans-e" d="M 2944 4013 
L 2944 2272 
L 4684 2272 
L 4684 1741 
L 2944 1741 
L 2944 0 
L 2419 0 
L 2419 1741 
L 678 1741 
L 678 2272 
L 2419 2272 
L 2419 4013 
L 2944 4013 
z
" transform="scale(0.015625)"/>
      <path id="DejaVuSans-16" d="M 2597 2516 
Q 3050 2419 3304 2112 
Q 3559 1806 3559 1356 
Q 3559 666 3084 287 
Q 2609 -91 1734 -91 
Q 1441 -91 1130 -33 
Q 819 25 488 141 
L 488 750 
Q 750 597 1062 519 
Q 1375 441 1716 441 
Q 2309 441 2620 675 
Q 2931 909 2931 1356 
Q 2931 1769 2642 2001 
Q 2353 2234 1838 2234 
L 1294 2234 
L 1294 2753 
L 1863 2753 
Q 2328 2753 2575 2939 
Q 2822 3125 2822 3475 
Q 2822 3834 2567 4026 
Q 2313 4219 1838 4219 
Q 1578 4219 1281 4162 
Q 984 4106 628 3988 
L 628 4550 
Q 988 4650 1302 4700 
Q 1616 4750 1894 4750 
Q 2613 4750 3031 4423 
Q 3450 4097 3450 3541 
Q 3450 3153 3228 2886 
Q 3006 2619 2597 2516 
z
" transform="scale(0.015625)"/>
     </defs>
     <use xlink:href="#DejaVuSans-e"/>
     <use xlink:href="#DejaVuSans-16" transform="translate(83.796875 0)"/>
     <use xlink:href="#DejaVuSans-13" transform="translate(147.421875 0)"/>
     <use xlink:href="#DejaVuSans-13" transform="translate(211.046875 0)"/>
     <use xlink:href="#DejaVuSans-39" transform="translate(274.671875 0)"/>
    </g>
   </g>
   <g id="patch_3">
    <path d="M 21.672 252.38 
C 22.388048 252.38 23.074866 252.095511 23.581188 251.589188 
C 24.087511 251.082866 24.372 250.396048 24.372 249.68 
C 24.372 248.963952 24.087511 248.277134 23.581188 247.770812 
C 23.074866 247.264489 22.388048 246.98 21.672 246.98 
C 20.955952 246.98 20.269134 247.264489 19.762812 247.770812 
C 19.256489 248.277134 18.972 248.963952 18.972 249.68 
C 18.972 250.396048 19.256489 251.082866 19.762812 251.589188 
C 20.269134 252.095511 20.955952 252.38 21.672 252.38 
z
" clip-path="url(#p83f63673b0)" style="fill: #ffffff; stroke: #000000; stroke-width: 2; stroke-linejoin: miter"/>
   </g>
   <g id="text_6">
    <!-- IN -->
    <g transform="translate(3.897625 253.689844) scale(0.11 -0.11)">
     <defs>
      <path id="DejaVuSans-2c" d="M 628 4666 
L 1259 4666 
L 1259 0 
L 628 0 
L 628 4666 
z
" transform="scale(0.015625)"/>
      <path id="DejaVuSans-31" d="M 628 4666 
L 1478 4666 
L 3547 763 
L 3547 4666 
L 4159 4666 
L 4159 0 
L 3309 0 
L 1241 3903 
L 1241 0 
L 628 0 
L 628 4666 
z
" transform="scale(0.015625)"/>
     </defs>
     <use xlink:href="#DejaVuSans-2c"/>
     <use xlink:href="#DejaVuSans-31" transform="translate(29.5 0)"/>
    </g>
   </g>
   <g id="patch_4">
    <path d="M 129.672 252.38 
C 130.388048 252.38 131.074866 252.095511 131.581188 251.589188 
C 132.087511 251.082866 132.372 250.396048 132.372 249.68 
C 132.372 248.963952 132.087511 248.277134 131.581188 247.770812 
C 131.074866 247.264489 130.388048 246.98 129.672 246.98 
C 128.955952 246.98 128.269134 247.264489 127.762812 247.770812 
C 127.256489 248.277134 126.972 248.963952 126.972 249.68 
C 126.972 250.396048 127.256489 251.082866 127.762812 251.589188 
C 128.269134 252.095511 128.955952 252.38 129.672 252.38 
z
" clip-path="url(#p83f63673b0)" style="stroke: #000000; stroke-width: 2; stroke-linejoin: miter"/>
   </g>
   <g id="patch_5">
    <path d="M 183.672 36.38 
C 184.388048 36.38 185.074866 36.095511 185.581188 35.589188 
C 186.087511 35.082866 186.372 34.396048 186.372 33.68 
C 186.372 32.963952 186.087511 32.277134 185.581188 31.770812 
C 185.074866 31.264489 184.388048 30.98 183.672 30.98 
C 182.955952 30.98 182.269134 31.264489 181.762812 31.770812 
C 181.256489 32.277134 180.972 32.963952 180.972 33.68 
C 180.972 34.396048 181.256489 35.082866 181.762812 35.589188 
C 182.269134 36.095511 182.955952 36.38 183.672 36.38 
z
" clip-path="url(#p83f63673b0)" style="stroke: #000000; stroke-width: 2; stroke-linejoin: miter"/>
   </g>
   <g id="text_7">
    <!-- OUT -->
    <g transform="translate(189.972 37.683828) scale(0.11 -0.11)">
     <defs>
      <path id="DejaVuSans-32" d="M 2522 4238 
Q 1834 4238 1429 3725 
Q 1025 3213 1025 2328 
Q 1025 1447 1429 934 
Q 1834 422 2522 422 
Q 3209 422 3611 934 
Q 4013 1447 4013 2328 
Q 4013 3213 3611 3725 
Q 3209 4238 2522 4238 
z
M 2522 4750 
Q 3503 4750 4090 4092 
Q 4678 3434 4678 2328 
Q 4678 1225 4090 567 
Q 3503 -91 2522 -91 
Q 1538 -91 948 565 
Q 359 1222 359 2328 
Q 359 3434 948 4092 
Q 1538 4750 2522 4750 
z
" transform="scale(0.015625)"/>
      <path id="DejaVuSans-38" d="M 556 4666 
L 1191 4666 
L 1191 1831 
Q 1191 1081 1462 751 
Q 1734 422 2344 422 
Q 2950 422 3222 751 
Q 3494 1081 3494 1831 
L 3494 4666 
L 4128 4666 
L 4128 1753 
Q 4128 841 3676 375 
Q 3225 -91 2344 -91 
Q 1459 -91 1007 375 
Q 556 841 556 1753 
L 556 4666 
z
" transform="scale(0.015625)"/>
      <path id="DejaVuSans-37" d="M -19 4666 
L 3928 4666 
L 3928 4134 
L 2272 4134 
L 2272 0 
L 1638 0 
L 1638 4134 
L -19 4134 
L -19 4666 
z
" transform="scale(0.015625)"/>
     </defs>
     <use xlink:href="#DejaVuSans-32"/>
     <use xlink:href="#DejaVuSans-38" transform="translate(78.71875 0)"/>
     <use xlink:href="#DejaVuSans-37" transform="translate(151.90625 0)"/>
    </g>
   </g>
  </g>
 </g>
 <defs>
  <clipPath id="p83f63673b0">
   <rect x="0" y="-0" width="217.554" height="385.4"/>
  </clipPath>
 </defs>
</svg>
